<svg xmlns="http://www.w3.org/2000/svg" style="display: none;">
<symbol id="forum" viewBox="0 0 489.6 489.6"><title>speech-bubble</title><path d="M394.8,261.5V81.7c0-24.9-20.3-45.2-45.2-45.2H45.2C20.3,36.5,0,56.8,0,81.7v179.8c0,24.9,20.3,45.2,45.2,45.2h12.9v54.2 c0,10,8.1,18.1,18.2,18.1l0,0c5.2,0,10.2-2.3,13.7-6.3l57.1-66.1h202.6C374.5,306.7,394.8,286.4,394.8,261.5z M141.4,282.2 c-3.6,0-6.9,1.5-9.3,4.2l-49.6,57.3v-49.3c0-6.8-5.5-12.3-12.3-12.3h-25c-11.4,0-20.7-9.3-20.7-20.7V81.7 c0-11.4,9.3-20.7,20.7-20.7h304.4c11.4,0,20.7,9.3,20.7,20.7v179.8c0,11.4-9.3,20.7-20.7,20.7L141.4,282.2L141.4,282.2z"/><path d="M399.7,446.8c3.5,4.1,8.5,6.3,13.6,6.3c2.1,0,4.3-0.4,6.4-1.2c7.2-2.7,11.8-9.3,11.8-17v-54.2h12.9 c24.9,0,45.2-20.3,45.2-45.2V155.7c0-24.9-20.3-45.2-45.2-45.2c-6.8,0-12.3,5.5-12.3,12.2c0,6.8,5.5,12.3,12.3,12.3 c11.4,0,20.7,9.3,20.7,20.7v179.8c0,11.4-9.3,20.7-20.7,20.7h-25.1c-6.8,0-12.3,5.5-12.3,12.3v49.3l-49.6-57.3 c-2.3-2.7-5.7-4.2-9.3-4.2h-184c-6.8,0-12.3,5.5-12.3,12.3s5.5,12.3,12.3,12.3h178.4L399.7,446.8z"/><circle cx="197.4" cy="175.9" r="14.6"/><circle cx="246.3" cy="175.9" r="14.6"/><circle cx="148.5" cy="175.9" r="14.6"/></symbol>
<symbol id="help" viewBox="0 0 32 32"><title>question-mark</title><circle cx="16" cy="29" r="3"/><path d="m16,0c-6.2,0-10,4.2-10,8 0,4.7 4.7,7 7,7 1.1,0 2-0.9 2-2s-0.9-2-2-2c-0.2,0-0.5,0.1-0.8,0.1-1.7,0.3-4.2-1.4-4.2-3.1 0-3.1 4.9-5 8-5s8,1.9 8,5c0,5.7-10,8.3-10,14 0,1.1 0.9,2 2,2s2-0.9 2-2c0-0.2 0-0.4-0.1-0.5-0.3-0.9-0.1-2 0.4-2.8 0.9-1.3 2-2.3 3.3-3.5 2.2-2 4.4-4 4.4-7.2 0-3.8-3.8-8-10-8z"/></symbol>
<symbol id="squad" viewBox="-19 0 512 512.00101"><title>team</title><path d="m130.605469 271.492188c1.585937 3.925781 5.363281 6.304687 9.351562 6.304687 1.257813 0 2.539063-.234375 3.777344-.734375 5.160156-2.085938 7.65625-7.964844 5.570313-13.125l-.195313-.480469c-2.085937-5.164062-7.960937-7.660156-13.125-5.570312-5.164063 2.085937-7.65625 7.960937-5.570313 13.125zm0 0"/><path d="m412.226562 428.84375c-2.085937-5.160156-7.964843-7.65625-13.128906-5.570312-5.160156 2.085937-7.65625 7.964843-5.570312 13.125l.195312.480468c1.585938 3.925782 5.363282 6.308594 9.351563 6.308594 1.257812 0 2.535156-.238281 3.773437-.738281 5.164063-2.085938 7.65625-7.960938 5.570313-13.125zm0 0"/><path d="m463.277344 491.835938h-50.222656v-19.15625c0-5.570313-4.511719-10.082032-10.082032-10.082032-5.566406 0-10.082031 4.511719-10.082031 10.082032v19.15625h-28.132813v-46.171876c0-5.566406-4.515624-10.082031-10.082031-10.082031-5.570312 0-10.082031 4.515625-10.082031 10.082031v46.171876h-27.8125v-117.945313h76.113281v19.136719c0 5.570312 4.511719 10.082031 10.082031 10.082031 5.566407 0 10.082032-4.511719 10.082032-10.082031v-14.589844c3.09375 1.085938 6.414062 1.671875 9.875 1.671875 16.511718 0 29.949218-13.433594 29.949218-29.949219v-63.519531c0-17.480469-6.5-34.203125-18.296874-47.085937-6.800782-7.425782-15.023438-13.214844-24.089844-17.082032 13.050781-13.761718 21.070312-32.34375 21.070312-52.765625 0-42.3125-34.425781-76.734375-76.738281-76.734375-8.574219 0-17.117187 1.449219-25.179687 4.238282-13.359376-28.902344-42.625-49.003907-76.5-49.003907-10.082032 0-20.105469 1.820313-29.492188 5.320313-14.671875-31.578125-46.691406-53.527344-83.742188-53.527344-50.878906 0-92.273437 41.394531-92.273437 92.273438 0 25.804687 10.644531 49.167968 27.777344 65.929687-12.167969 4.597656-23.1875 12.019531-32.148438 21.816406-14.132812 15.449219-21.914062 35.492188-21.914062 56.445313v78.324218c0 19.066407 15.511719 34.578126 34.578125 34.578126 5.140625 0 10.023437-1.128907 14.414062-3.148438v145.617188h-60.265625c-5.566406 0-10.082031 4.515624-10.082031 10.082031 0 5.570312 4.515625 10.082031 10.082031 10.082031h453.195313c5.566406 0 10.082031-4.511719 10.082031-10.082031 0-5.566407-4.515625-10.082031-10.082031-10.082031zm-204.800782-177.046876v-78.324218c0-6.761719-.8125-13.425782-2.382812-19.875 13.179688-.453125 25.597656-3.953125 36.574219-9.8125 27.6875 3.914062 48.238281 27.398437 48.238281 55.703125v70.648437c0 6.625-5.386719 12.015625-12.011719 12.015625s-12.015625-5.390625-12.015625-12.015625c0-.484375-.035156-.964844-.101562-1.429687v-44.972657c0-5.570312-4.515625-10.082031-10.082032-10.082031-5.570312 0-10.082031 4.511719-10.082031 10.082031v51.496094h-47.316406c5.695313-6.164062 9.179687-14.398437 9.179687-23.433594zm174.238282-28.148437v63.519531c0 5.398438-4.386719 9.785156-9.785156 9.785156-5.394532 0-9.78125-4.386718-9.78125-9.785156 0-.460937-.03125-.914062-.09375-1.359375v-40.359375c0-5.570312-4.511719-10.085937-10.082032-10.085937-5.566406 0-10.082031 4.515625-10.082031 10.085937v45.28125h-39.292969c4.664063-5.582031 7.476563-12.765625 7.476563-20.59375v-70.648437c0-5.484375-.585938-10.898438-1.722657-16.164063 11.207032-.65625 21.777344-3.726562 31.191407-8.699218 24.230469 3.585937 42.171875 24.199218 42.171875 49.023437zm-77.890625-173.503906c31.195312 0 56.574219 25.378906 56.574219 56.570312 0 31.195313-25.378907 56.574219-56.574219 56.574219-.960938 0-1.925781-.027344-2.890625-.074219-2.964844-5.492187-6.617188-10.648437-10.914063-15.335937-7.832031-8.554688-17.386719-15.125-27.925781-19.351563 15-15.214843 24.269531-36.09375 24.269531-59.097656 0-5.480469-.523437-10.839844-1.527343-16.03125 6.046874-2.160156 12.410156-3.253906 18.988281-3.253906zm-101.679688-44.765625c35.320313 0 64.054688 28.734375 64.054688 64.054687 0 35.316407-28.734375 64.050781-64.054688 64.050781-1.644531 0-3.292969-.0625-4.933593-.1875-3.195313-5.832031-7.105469-11.308593-11.679688-16.300781-8.960938-9.78125-19.96875-17.191406-32.121094-21.785156 17.132813-16.761719 27.777344-40.125 27.777344-65.925781 0-6.734375-.722656-13.300782-2.101562-19.625 7.316406-2.816406 15.160156-4.28125 23.058593-4.28125zm-185.339843 23.902344c0-39.761719 32.347656-72.109376 72.109374-72.109376 39.761719 0 72.109376 32.347657 72.109376 72.109376 0 39.761718-32.347657 72.109374-72.109376 72.109374-39.761718 0-72.109374-32.347656-72.109374-72.109374zm-11.871094 236.929687c-7.949219 0-14.414063-6.464844-14.414063-14.414063v-78.324218c0-32.042969 23.367188-58.625 54.777344-62.890625 10.1875 5.488281 21.519531 9.117187 33.535156 10.425781v43.246094c0 5.570312 4.515625 10.085937 10.082031 10.085937 5.570313 0 10.082032-4.515625 10.082032-10.085937v-43.246094c12.015625-1.308594 23.347656-4.9375 33.535156-10.425781 31.417969 4.261719 54.78125 30.835937 54.78125 62.890625v78.324218c0 7.949219-6.46875 14.414063-14.417969 14.414063-7.945312 0-14.414062-6.464844-14.414062-14.414063 0-.511718-.035157-1.019531-.109375-1.511718v-40.363282c0-5.566406-4.515625-10.082031-10.085938-10.082031-5.566406 0-10.082031 4.515625-10.082031 10.082031v48.617188h-98.691406v-58.1875c0-5.570312-4.511719-10.085938-10.082031-10.085938-5.566407 0-10.082032 4.515626-10.082032 10.085938v51.445312c0 7.949219-6.464844 14.414063-14.414062 14.414063zm94.007812 162.632813v-102.421876c0-5.570312-4.515625-10.082031-10.082031-10.082031-5.570313 0-10.082031 4.511719-10.082031 10.082031v102.421876h-39.265625v-150.140626h98.691406v150.140626zm59.632813-133.449219h86.929687v133.449219h-38.027344v-80.648438c0-5.566406-4.515624-10.082031-10.085937-10.082031-5.566406 0-10.082031 4.515625-10.082031 10.082031v80.648438h-28.734375zm0 0"/></symbol>
<symbol id="office" viewBox="0 0 511.999 511.999"><title>office</title><path d="M142.715,82.068h-36.571c-5.77,0-10.449,4.679-10.449,10.449v57.469c0,5.77,4.679,10.449,10.449,10.449h36.571 c5.77,0,10.449-4.679,10.449-10.449V92.517C153.164,86.747,148.485,82.068,142.715,82.068z M132.266,139.537h-15.674v-36.571 h15.674V139.537z"/><path d="M215.858,82.068h-36.571c-5.77,0-10.449,4.679-10.449,10.449v57.469c0,5.77,4.679,10.449,10.449,10.449h36.571 c5.77,0,10.449-4.679,10.449-10.449V92.517C226.307,86.747,221.628,82.068,215.858,82.068z M205.409,139.537h-15.673v-36.571 h15.673V139.537z"/> <path d="M142.715,184.467h-36.571c-5.77,0-10.449,4.679-10.449,10.449v57.469c0,5.77,4.679,10.449,10.449,10.449h36.571 c5.77,0,10.449-4.679,10.449-10.449v-57.469C153.164,189.147,148.485,184.467,142.715,184.467z M132.266,241.937h-15.674v-36.571 h15.674V241.937z"/><path d="M215.858,184.467h-36.571c-5.77,0-10.449,4.679-10.449,10.449v57.469c0,5.77,4.679,10.449,10.449,10.449h36.571 c5.77,0,10.449-4.679,10.449-10.449v-57.469C226.307,189.147,221.628,184.467,215.858,184.467z M205.409,241.937h-15.673v-36.571 h15.673V241.937z"/><path d="M142.715,286.867h-36.571c-5.77,0-10.449,4.679-10.449,10.449v57.469c0,5.77,4.679,10.449,10.449,10.449h36.571 c5.77,0,10.449-4.679,10.449-10.449v-57.469C153.164,291.547,148.485,286.867,142.715,286.867z M132.266,344.337h-15.674v-36.571 h15.674V344.337z"/><path d="M215.858,286.867h-36.571c-5.77,0-10.449,4.679-10.449,10.449v57.469c0,5.77,4.679,10.449,10.449,10.449h36.571 c5.77,0,10.449-4.679,10.449-10.449v-57.469C226.307,291.547,221.628,286.867,215.858,286.867z M205.409,344.337h-15.673v-36.571 h15.673V344.337z"/><path d="M142.715,389.267h-36.571c-5.77,0-10.449,4.679-10.449,10.449v57.469c0,5.77,4.679,10.449,10.449,10.449h36.571 c5.77,0,10.449-4.679,10.449-10.449v-57.469C153.164,393.947,148.485,389.267,142.715,389.267z M132.266,446.737h-15.674v-36.571 h15.674V446.737z"/><path d="M215.858,389.267h-36.571c-5.77,0-10.449,4.679-10.449,10.449v57.469c0,5.77,4.679,10.449,10.449,10.449h36.571 c5.77,0,10.449-4.679,10.449-10.449v-57.469C226.307,393.947,221.628,389.267,215.858,389.267z M205.409,446.737h-15.673v-36.571 h15.673V446.737z"/><path d="M400.506,422.486h-0.187c-5.77,0-10.449,4.679-10.449,10.449c0,5.77,4.679,10.449,10.449,10.449h0.187 c5.77,0,10.449-4.679,10.449-10.449C410.955,427.165,406.276,422.486,400.506,422.486z"/><path d="M400.506,176.087h-0.187c-5.77,0-10.449,4.679-10.449,10.449c0,5.77,4.679,10.449,10.449,10.449h0.187 c5.77,0,10.449-4.679,10.449-10.449C410.955,180.766,406.276,176.087,400.506,176.087z"/><path d="M400.506,225.367h-0.187c-5.77,0-10.449,4.679-10.449,10.449c0,5.77,4.679,10.449,10.449,10.449h0.187 c5.77,0,10.449-4.679,10.449-10.449C410.955,230.046,406.276,225.367,400.506,225.367z"/><path d="M400.506,274.646h-0.187c-5.77,0-10.449,4.679-10.449,10.449c0,5.77,4.679,10.449,10.449,10.449h0.187 c5.77,0,10.449-4.679,10.449-10.449C410.955,279.325,406.276,274.646,400.506,274.646z"/><path d="M400.506,323.926h-0.187c-5.77,0-10.449,4.679-10.449,10.449c0,5.77,4.679,10.449,10.449,10.449h0.187 c5.77,0,10.449-4.679,10.449-10.449C410.955,328.605,406.276,323.926,400.506,323.926z"/><path d="M400.506,373.206h-0.187c-5.77,0-10.449,4.679-10.449,10.449c0,5.77,4.679,10.449,10.449,10.449h0.187 c5.77,0,10.449-4.679,10.449-10.449C410.955,377.885,406.276,373.206,400.506,373.206z"/><path d="M479.085,491.101H450.47V136.957c0-5.77-4.679-10.449-10.449-10.449H266.535V55.379c0-4.845-3.331-9.055-8.046-10.169 L68.318,0.279c-3.109-0.732-6.382-0.006-8.887,1.976c-2.506,1.98-3.965,4.999-3.965,8.193v480.653H32.914 c-5.77,0-10.449,4.679-10.449,10.449c0,5.77,4.679,10.449,10.449,10.449h446.171c5.77,0,10.449-4.679,10.449-10.449 C489.534,495.78,484.855,491.101,479.085,491.101z M245.637,136.957v354.144H76.364V23.652l169.273,39.993V136.957z M429.572,491.101H266.535v-47.716h97.872c5.77,0,10.449-4.679,10.449-10.449c0-5.77-4.679-10.449-10.449-10.449h-97.872v-28.381 h97.872c5.77,0,10.449-4.679,10.449-10.449c0-5.77-4.679-10.449-10.449-10.449h-97.872v-28.383h97.872 c5.77,0,10.449-4.679,10.449-10.449c0-5.77-4.679-10.449-10.449-10.449h-97.872v-28.382h97.872c5.77,0,10.449-4.679,10.449-10.449 c0-5.77-4.679-10.449-10.449-10.449h-97.872v-28.382h97.872c5.77,0,10.449-4.679,10.449-10.449c0-5.77-4.679-10.449-10.449-10.449 h-97.872v-28.382h97.872c5.77,0,10.449-4.679,10.449-10.449c0-5.77-4.679-10.449-10.449-10.449h-97.872v-28.681h163.036V491.101z"/></symbol>
<symbol id="competitions" viewBox="0 0 502 502"><title>trophy</title><path d="M492,58.458h-89.722c-2.205-7.839-4.907-15.553-8.105-23.122c-1.564-3.702-5.193-6.107-9.211-6.107H116.083 c-4.019,0-7.647,2.405-9.211,6.107c-3.198,7.569-5.901,15.283-8.105,23.122H10c-5.523,0-10,4.478-10,10 c0,40.449,13.161,78.557,37.058,107.303c23.517,28.288,54.671,44.294,88.058,45.347c0.905,1.334,1.821,2.662,2.762,3.978 c21.895,30.639,51.617,54.018,86.281,67.946v23.333h-12.447c-5.523,0-10,4.478-10,10c0,5.522,4.477,10,10,10h12.447v17.826 h-12.447c-5.523,0-10,4.478-10,10c0,5.522,4.477,10,10,10h12.447v23.558h-26.107c-29.848,0-54.131,24.283-54.131,54.131v10.89 c0,5.522,4.477,10,10,10h213.204c5.523,0,10-4.478,10-10v-10.89c0-29.848-24.283-54.131-54.131-54.131h-26.107v-23.558h13.402 c5.523,0,10-4.478,10-10c0-5.522-4.477-10-10-10h-13.402v-17.826h13.402c5.523,0,10-4.478,10-10c0-5.522-4.477-10-10-10h-13.402 v-23.333c34.664-13.929,64.386-37.308,86.281-67.946c23.792-33.293,36.368-72.591,36.368-113.644 c0-11.151-0.935-22.163-2.771-32.984h74.922c-2.949,46.85-26.431,89.208-61.505,109.752c-4.766,2.792-6.366,8.918-3.575,13.683 c1.861,3.178,5.204,4.948,8.638,4.948c1.717,0,3.457-0.443,5.045-1.373c21.317-12.486,39.293-31.729,51.984-55.649 C495.179,125.496,502,97.362,502,68.458C502,62.937,497.523,58.458,492,58.458z M20.305,78.458H94.28 c-1.837,10.822-2.771,21.833-2.771,32.984c0,31.035,7.192,61.064,20.979,88.257C62.861,190.626,24.1,140.404,20.305,78.458z M312.993,417.749c18.82,0,34.131,15.311,34.131,34.131v0.89H153.92v-0.89c0-18.82,15.311-34.131,34.131-34.131H312.993z M266.886,374.191v23.558h-32.728v-23.558H266.886z M234.158,354.191v-17.826h32.728v17.826H234.158z M273.492,276.738 c-3.964,1.431-6.605,5.192-6.605,9.406v30.221h-32.728v-30.221c0-4.214-2.642-7.976-6.605-9.406 c-69.409-25.05-116.043-91.478-116.043-165.296c0-13.205,1.447-26.189,4.307-38.847c0.519-1.139,0.827-2.391,0.883-3.711 c1.657-6.652,3.703-13.21,6.148-19.656H378.2c7.526,19.845,11.337,40.74,11.337,62.214 C389.535,185.261,342.901,251.688,273.492,276.738z"/><path d="M208.456,226.11c-21.505-11.884-39.218-32.593-49.875-58.313c-2.113-5.102-7.965-7.525-13.066-5.41 c-5.103,2.114-7.525,7.964-5.411,13.066c12.384,29.889,33.223,54.096,58.678,68.163c1.534,0.847,3.192,1.249,4.828,1.249 c3.521,0,6.938-1.864,8.761-5.165C215.043,234.866,213.29,228.783,208.456,226.11z"/><path d="M141.488,148.237c5.445-0.925,9.109-6.089,8.184-11.533c-1.428-8.402-2.151-17.053-2.151-25.712c0-5.522-4.477-10-10-10 c-5.523,0-10,4.478-10,10c0,9.778,0.819,19.556,2.434,29.062c0.829,4.878,5.06,8.327,9.847,8.327 C140.357,148.382,140.921,148.335,141.488,148.237z"/></symbol>
<symbol id="settings" viewBox="0 0 512 512"><title>settings</title><g transform="matrix(1.1,0,0,1.1002864,-25.59995,-25.72342)" id="g3713"><path id="path3705" d="m 435.648,295.275 -33.621,-26.347 c 0.405,-4.245 0.661,-8.576 0.661,-12.907 0,-4.395 -0.256,-8.768 -0.683,-13.163 l 33.941,-26.624 c 7.509,-6.357 9.323,-16.981 4.416,-25.152 L 404.01,128.255 c -4.949,-8.235 -15.04,-11.776 -24.277,-8.299 l -39.531,15.893 c -7.104,-5.077 -14.507,-9.387 -22.4,-13.099 L 311.807,80.19 C 310.059,70.976 301.675,64 292.267,64 h -72.533 c -9.493,0 -17.899,7.125 -19.627,16.939 l -5.931,42.112 c -7.957,3.776 -15.445,8.149 -22.379,13.056 l -39.765,-16 c -8.981,-3.349 -19.072,0.149 -24.107,8.533 l -36.181,62.549 c -4.992,8.32 -3.179,18.944 4.629,25.536 l 33.621,26.368 c -0.405,4.245 -0.661,8.576 -0.661,12.907 0,4.395 0.256,8.768 0.661,13.141 l -33.941,26.624 c -7.509,6.357 -9.323,16.981 -4.416,25.152 l 36.352,62.827 c 4.949,8.235 15.061,11.776 24.277,8.299 l 39.531,-15.893 c 7.104,5.077 14.507,9.387 22.4,13.099 l 5.995,42.56 c 1.749,9.216 10.133,16.192 19.541,16.192 h 72.533 c 9.493,0 17.899,-7.125 19.669,-16.939 l 5.909,-42.112 c 7.957,-3.776 15.445,-8.149 22.379,-13.056 l 39.765,16 c 9.003,3.392 19.093,-0.149 24.107,-8.533 l 36.181,-62.549 c 4.993,-8.3 3.18,-18.945 -4.628,-25.537 z m -49.323,76.16 -43.712,-17.579 c -3.52,-1.451 -7.531,-0.875 -10.539,1.472 -8.341,6.507 -17.835,12.053 -28.203,16.491 -3.413,1.472 -5.845,4.629 -6.357,8.32 l -5.248,46.528 h -71.275 l -6.485,-46.272 c -0.533,-3.712 -2.965,-6.891 -6.443,-8.341 -10.219,-4.267 -19.413,-9.664 -28.139,-16.448 -3.008,-2.325 -6.997,-2.88 -10.539,-1.472 l -43.712,17.6 -34.923,-60.352 37.12,-29.099 c 2.965,-2.325 4.48,-6.037 4.011,-9.771 -0.725,-5.504 -1.216,-11.008 -1.216,-16.512 0,-5.483 0.491,-10.944 1.195,-16.192 0.491,-3.733 -1.003,-7.488 -3.989,-9.813 l -37.12,-29.099 34.923,-60.352 43.712,17.6 c 3.499,1.408 7.509,0.832 10.539,-1.493 8.341,-6.485 17.835,-12.032 28.203,-16.491 3.435,-1.472 5.845,-4.608 6.357,-8.299 l 5.248,-46.528 h 71.275 l 6.485,46.272 c 0.533,3.712 2.965,6.891 6.443,8.341 10.219,4.267 19.413,9.664 28.139,16.448 3.008,2.347 7.04,2.901 10.539,1.472 l 43.712,-17.621 34.923,60.352 -37.12,29.099 c -2.965,2.325 -4.48,6.037 -4.011,9.771 0.725,5.504 1.216,11.008 1.216,16.512 0,5.483 -0.491,10.944 -1.195,16.192 -0.491,3.733 1.003,7.488 3.989,9.813 l 37.12,29.099 z" /><path id="path3707" d="m 256,192 c -35.285,0 -64,28.715 -64,64 0,35.285 28.715,64 64,64 35.285,0 64,-28.715 64,-64 0,-35.285 -28.715,-64 -64,-64 z m 0,106.667 c -23.531,0 -42.667,-19.136 -42.667,-42.667 0,-23.531 19.136,-42.667 42.667,-42.667 23.531,0 42.667,19.136 42.667,42.667 0,23.531 -19.136,42.667 -42.667,42.667 z" /></g></symbol>
<symbol id="logo" viewBox="0 0 512 512"><title>logo</title><path d="M462.385,104.591C421.934,49.47,362.44,13.399,294.859,3.025C227.28-7.35,159.705,9.214,104.583,49.665 C49.462,90.116,13.391,149.611,3.017,217.191C-5.99,275.867,5.322,334.532,34.93,385.052c0.021,0.038,0.044,0.075,0.065,0.113 c4.475,7.628,9.358,15.074,14.662,22.302c36.046,49.12,88.52,83.83,147.753,97.735c2.7,0.634,5.407,1.212,8.119,1.757 c0.565,0.16,1.142,0.267,1.728,0.327c16.171,3.132,32.523,4.708,48.833,4.708c16.423,0,32.793-1.6,48.878-4.719 c0.477-0.057,0.948-0.145,1.41-0.269c22.363-4.468,44.154-11.912,64.717-22.289c4.93-2.488,6.91-8.501,4.421-13.431 c-2.488-4.93-8.501-6.91-13.431-4.421c-12.385,6.25-25.081,11.307-37.949,15.225l41.461-71.879l81.174-15.247 c-7.056,9.731-14.928,19.003-23.621,27.7c-3.904,3.906-3.903,10.237,0.003,14.14c3.906,3.905,10.236,3.902,14.14-0.002 c15.297-15.303,28.466-32.426,39.313-50.873c0.08-0.133,0.161-0.264,0.235-0.4c17.685-30.201,29.119-63.949,33.333-99.154 c0.037-0.245,0.065-0.49,0.084-0.736c0.356-3.048,0.672-6.104,0.919-9.173C516.107,215.224,498.779,154.186,462.385,104.591z M291.826,22.791c51.806,7.953,98.447,32.298,134.135,69.488l-12.2,104.891l-78.389,17.6l-69.107-50.209V89.461l15.397-11.036 c4.488-3.217,5.519-9.464,2.302-13.952c-3.218-4.488-9.463-5.518-13.952-2.302l-14.407,10.326l-68.882-42.145 C220.31,20.01,256.064,17.302,291.826,22.791z M190.646,229.335l32.566-23.66l32.566-23.66l65.132,47.321l-24.878,76.567h-80.508 v-0.001L190.646,229.335z M116.415,65.788c14.606-10.719,30.165-19.608,46.395-26.621l82.969,50.764v74.631l-69.107,50.21 l-78.698-17.669L81.905,96.662C92.264,85.392,103.796,75.048,116.415,65.788z M22.782,220.225 c5.8-37.781,20.325-72.812,42.183-102.857l13.529,84.571l-58.454,58.965C19.792,247.424,20.696,233.825,22.782,220.225z M22.037,287.294l70.339-70.954l78.766,17.684l26.133,80.43l-49.186,75.691l-97.984-18.809 C35.381,345.163,25.927,316.714,22.037,287.294z M65.779,395.637c-0.262-0.357-0.511-0.72-0.771-1.077l81.424,15.63l41.588,72.088 C140.455,467.938,97.209,438.465,65.779,395.637z M297.306,488.579c-27.559,4.962-55.483,4.885-82.512,0.09l-50.263-87.127 l49.155-75.642h84.669l49.155,75.643L297.306,488.579z M461.538,371.841l-97.57,18.327l-49.202-75.715l26.134-80.43l78.708-17.671 l69.77,71.646C485.431,317.211,476.112,345.731,461.538,371.841z M491.475,261.49l-58.122-59.686l10.33-88.809 c0.866,1.137,1.732,2.273,2.58,3.428C477.841,159.455,492.683,210.733,491.475,261.49z"/><path d="M310.854,43.196c-1.86-1.86-4.439-2.93-7.069-2.93c-2.63,0-5.209,1.07-7.069,2.93c-1.86,1.86-2.93,4.439-2.93,7.069 c0,2.63,1.07,5.209,2.93,7.069c1.86,1.87,4.439,2.93,7.069,2.93c2.63,0,5.209-1.06,7.069-2.93c1.86-1.86,2.93-4.439,2.93-7.069 C313.784,47.635,312.714,45.055,310.854,43.196z"/><path d="M407.439,447.643c-1.86-1.86-4.439-2.93-7.069-2.93s-5.209,1.07-7.069,2.93c-1.86,1.86-2.93,4.439-2.93,7.069 c0,2.63,1.07,5.209,2.93,7.069c1.86,1.87,4.438,2.93,7.069,2.93c2.63,0,5.209-1.06,7.069-2.93c1.86-1.86,2.93-4.439,2.93-7.069 C410.369,452.082,409.299,449.503,407.439,447.643z"/></symbol>
<symbol id="login" viewBox="0 0 579.193 579.193"><title>login</title><path d="M521.259,0.5H260.695c-11.83,0-21.42,9.59-21.42,21.42s9.59,21.42,21.42,21.42h255.918v492.514H261.501 c-11.83,0-21.42,9.59-21.42,21.42s9.59,21.42,21.42,21.42h259.757c21.061,0,38.194-17.134,38.194-38.194V38.694 C559.453,17.634,542.319,0.5,521.259,0.5z"/> <path d="M521.259,579.193H261.501c-12.087,0-21.92-9.833-21.92-21.92s9.833-21.92,21.92-21.92h254.612V43.84H260.695 c-12.087,0-21.92-9.833-21.92-21.92S248.608,0,260.695,0h260.564c21.336,0,38.694,17.358,38.694,38.694v501.805 C559.953,561.835,542.595,579.193,521.259,579.193z M261.501,536.354c-11.535,0-20.92,9.385-20.92,20.92s9.385,20.92,20.92,20.92 h259.757c20.785,0,37.694-16.909,37.694-37.694V38.694C558.953,17.91,542.044,1,521.259,1H260.695 c-11.535,0-20.92,9.385-20.92,20.92s9.385,20.92,20.92,20.92h256.418v493.514H261.501z"/><path d="M19.74,226.701v122.247c0,30.678,24.958,55.638,55.637,55.638H214.92v19.746c0,7.869,1.601,15.472,4.758,22.597 c3.012,6.798,7.297,12.832,12.736,17.934c10.401,9.759,23.976,15.134,38.222,15.134c13.837,0,27.125-5.171,37.416-14.558 l149.65-136.508c11.529-10.517,18.143-25.499,18.143-41.104c0-15.606-6.612-30.588-18.142-41.106L308.053,110.212 c-10.291-9.388-23.578-14.558-37.415-14.558c-14.248,0-27.822,5.374-38.223,15.132c-5.439,5.102-9.724,11.136-12.736,17.935 c-3.157,7.125-4.758,14.727-4.758,22.595v19.747H75.377C44.699,171.063,19.74,196.023,19.74,226.701z M244.963,213.904 c7.068,0,12.797-5.73,12.797-12.798v-49.789c0-7.67,6.282-12.823,12.877-12.823c2.966,0,5.995,1.043,8.545,3.368l149.65,136.507 c5.563,5.075,5.563,13.834,0,18.909l-149.65,136.508c-2.55,2.326-5.579,3.368-8.545,3.368c-6.594,0-12.877-5.153-12.877-12.822 v-49.789c0-7.068-5.729-12.798-12.797-12.798H75.377c-7.068,0-12.797-5.729-12.797-12.798V226.701 c0-7.068,5.729-12.798,12.797-12.798L244.963,213.904L244.963,213.904z"/> <path d="M270.637,480.496c-14.374,0-28.07-5.423-38.564-15.27c-5.487-5.147-9.811-11.235-12.851-18.096 c-3.186-7.189-4.801-14.859-4.801-22.799v-19.246H75.377c-30.954,0-56.137-25.184-56.137-56.138V226.701 c0-30.955,25.183-56.138,56.137-56.138h139.043v-19.247c0-7.938,1.615-15.609,4.801-22.798 c3.039-6.86,7.363-12.949,12.851-18.097c10.494-9.845,24.19-15.268,38.565-15.268c13.961,0,27.369,5.216,37.752,14.688 l149.651,136.509c11.633,10.613,18.305,25.73,18.305,41.476s-6.672,30.862-18.306,41.473L308.39,465.808 C298.006,475.279,284.598,480.496,270.637,480.496z M75.377,171.563c-30.403,0-55.137,24.735-55.137,55.138v122.247 c0,30.403,24.734,55.138,55.137,55.138H215.42v20.246c0,7.799,1.586,15.333,4.715,22.395c2.985,6.736,7.231,12.716,12.621,17.771 c10.308,9.672,23.761,14.998,37.88,14.998c13.711,0,26.88-5.124,37.079-14.427l149.65-136.508 c11.426-10.423,17.979-25.271,17.979-40.735c0-15.465-6.553-30.313-17.979-40.737L307.716,110.582 c-10.198-9.304-23.367-14.427-37.078-14.427c-14.12,0-27.573,5.326-37.88,14.997c-5.39,5.056-9.637,11.036-12.622,17.773 c-3.128,7.061-4.715,14.594-4.715,22.393v20.247H75.377z M270.638,437.654c-6.434,0-13.377-5.094-13.377-13.322v-49.789 c0-6.781-5.517-12.298-12.297-12.298H75.377c-7.332,0-13.297-5.966-13.297-13.298V226.701c0-7.333,5.965-13.298,13.297-13.298 h169.585c0,0,0.001,0,0.001,0c3.284,0,6.372-1.279,8.694-3.601c2.323-2.323,3.602-5.411,3.602-8.696v-49.789 c0-8.229,6.944-13.323,13.377-13.323c3.3,0,6.372,1.209,8.882,3.498L429.17,278c2.756,2.514,4.336,6.094,4.336,9.824 s-1.58,7.31-4.336,9.824L279.52,434.155C277.011,436.444,273.939,437.654,270.638,437.654z M75.377,214.403 c-6.781,0-12.297,5.517-12.297,12.298v122.247c0,6.781,5.517,12.298,12.297,12.298h169.585c7.332,0,13.297,5.966,13.297,13.298 v49.789c0,7.611,6.425,12.322,12.377,12.322c3.048,0,5.886-1.119,8.208-3.237l149.65-136.508c2.548-2.325,4.01-5.636,4.01-9.085 c0-3.449-1.462-6.761-4.01-9.085l-149.65-136.507c-2.323-2.118-5.161-3.237-8.208-3.237c-7.748,0-12.377,6.266-12.377,12.323 v49.789c0,7.333-5.965,13.298-13.297,13.298L75.377,214.403z"/></symbol>
<symbol id="logout" viewBox="0 0 579.193 579.193"><title>logout</title><path d="M261.808,578.693h259.757c21.061,0,38.193-17.134,38.193-38.194V38.694c0-21.061-17.133-38.194-38.193-38.194H261.001 c-11.83,0-21.42,9.59-21.42,21.42s9.59,21.42,21.42,21.42h255.918v492.514H261.808c-11.83,0-21.42,9.59-21.42,21.42 S249.978,578.693,261.808,578.693z"/><path d="M521.565,579.193H261.808c-12.087,0-21.92-9.833-21.92-21.92s9.833-21.92,21.92-21.92h254.611V43.84H261.001 c-12.087,0-21.92-9.833-21.92-21.92S248.914,0,261.001,0h260.564c21.336,0,38.693,17.358,38.693,38.694v501.805 C560.259,561.835,542.901,579.193,521.565,579.193z M261.808,536.354c-11.535,0-20.92,9.385-20.92,20.92s9.385,20.92,20.92,20.92 h259.757c20.784,0,37.693-16.909,37.693-37.694V38.694C559.259,17.91,542.35,1,521.565,1H261.001 c-11.535,0-20.92,9.385-20.92,20.92s9.385,20.92,20.92,20.92h256.418v493.514H261.808z"/><path d="M275.602,128.723c-3.012-6.798-7.296-12.833-12.734-17.935c-10.402-9.759-23.977-15.134-38.224-15.134 c0,0-0.002,0-0.003,0c-13.836,0-27.123,5.171-37.413,14.558L37.577,246.719c-11.53,10.518-18.143,25.5-18.142,41.106 c0,15.605,6.613,30.587,18.142,41.104l149.651,136.508c10.291,9.388,23.579,14.558,37.415,14.558 c14.247,0,27.822-5.374,38.223-15.133c5.438-5.102,9.723-11.136,12.735-17.935c3.157-7.125,4.759-14.727,4.759-22.596v-19.746 h139.543c30.678,0,55.637-24.959,55.637-55.638V226.701c0-30.678-24.959-55.638-55.637-55.638H280.36v-19.747 C280.36,143.449,278.759,135.847,275.602,128.723z M419.903,213.904c7.066,0,12.797,5.729,12.797,12.797v122.247 c0,7.067-5.73,12.798-12.797,12.798H250.317c-7.068,0-12.797,5.729-12.797,12.797v49.789c0,7.67-6.283,12.823-12.877,12.823 c-2.966,0-5.995-1.042-8.545-3.368L66.447,297.279c-5.564-5.075-5.564-13.833,0-18.91l149.65-136.507 c2.549-2.325,5.579-3.367,8.545-3.368c6.594,0,12.877,5.153,12.877,12.823v49.789c0,7.067,5.729,12.798,12.798,12.798 L419.903,213.904L419.903,213.904L419.903,213.904z"/><path d="M224.643,480.495c-13.962,0-27.369-5.217-37.752-14.688L37.24,329.299c-11.633-10.612-18.305-25.729-18.305-41.474 c0-15.745,6.671-30.862,18.305-41.476l149.651-136.507c10.383-9.472,23.79-14.688,37.75-14.688 c14.377,0,28.074,5.423,38.569,15.269c5.487,5.149,9.811,11.238,12.849,18.097c3.186,7.188,4.801,14.857,4.801,22.796v19.247 h139.043c30.954,0,56.137,25.183,56.137,56.138v122.247c0,30.954-25.183,56.138-56.137,56.138H280.86v19.246 c0,7.938-1.616,15.608-4.802,22.798c-3.039,6.86-7.363,12.949-12.85,18.097C252.714,475.073,239.018,480.495,224.643,480.495z M224.644,96.154c-13.713,0-26.88,5.124-37.079,14.427L37.914,247.089c-11.426,10.423-17.979,25.271-17.979,40.736 c0,15.465,6.553,30.312,17.979,40.735l149.651,136.508c10.198,9.303,23.366,14.427,37.078,14.427 c14.12,0,27.573-5.326,37.88-14.997c5.39-5.057,9.636-11.036,12.621-17.772c3.129-7.062,4.716-14.597,4.716-22.394v-20.246 h140.043c30.402,0,55.137-24.734,55.137-55.138V226.701c0-30.403-24.734-55.138-55.137-55.138H279.86v-20.247 c0-7.798-1.586-15.332-4.715-22.391c-2.984-6.736-7.23-12.716-12.62-17.773C252.216,101.481,238.763,96.154,224.644,96.154z M224.643,437.655c-3.302,0-6.373-1.21-8.882-3.499L66.11,297.648c-2.756-2.513-4.336-6.094-4.336-9.823 c0-3.73,1.581-7.311,4.336-9.826l149.65-136.507c2.508-2.288,5.58-3.498,8.882-3.499l0,0c6.433,0,13.377,5.094,13.377,13.323 v49.789c0,6.781,5.517,12.298,12.298,12.298h169.586c3.552,0,6.891,1.383,9.402,3.894c2.511,2.512,3.895,5.851,3.895,9.403 v122.247c0,7.332-5.965,13.298-13.297,13.298H250.317c-6.781,0-12.297,5.517-12.297,12.297v49.789 C238.02,432.562,231.076,437.655,224.643,437.655z M224.643,138.995c-3.048,0.001-5.887,1.121-8.208,3.237L66.784,278.739 c-2.549,2.325-4.01,5.637-4.01,9.086c0,3.449,1.462,6.76,4.01,9.084l149.65,136.508c2.322,2.118,5.16,3.237,8.208,3.237 c7.748,0,12.377-6.266,12.377-12.323v-49.789c0-7.332,5.965-13.297,13.297-13.297h169.586c6.78,0,12.297-5.517,12.297-12.298 V226.701c0-6.781-5.517-12.297-12.297-12.297l-169.586,0c-7.333,0-13.298-5.965-13.298-13.298v-49.789 C237.02,145.26,232.39,138.995,224.643,138.995L224.643,138.995z"/></symbol>
<symbol id="arrowhead-down" viewBox="0 0 292.362 292.362"><title>arrowhead-down</title><path d="M286.935,69.377c-3.614-3.617-7.898-5.424-12.848-5.424H18.274c-4.952,0-9.233,1.807-12.85,5.424 C1.807,72.998,0,77.279,0,82.228c0,4.948,1.807,9.229,5.424,12.847l127.907,127.907c3.621,3.617,7.902,5.428,12.85,5.428 s9.233-1.811,12.847-5.428L286.935,95.074c3.613-3.617,5.427-7.898,5.427-12.847C292.362,77.279,290.548,72.998,286.935,69.377z"/></symbol>
<symbol id="arrowhead-right" viewBox="0 0 292.359 292.359"><title>arrowhead-right</title><path d="M222.979,133.331L95.073,5.424C91.456,1.807,87.178,0,82.226,0c-4.952,0-9.233,1.807-12.85,5.424 c-3.617,3.617-5.424,7.898-5.424,12.847v255.813c0,4.948,1.807,9.232,5.424,12.847c3.621,3.617,7.902,5.428,12.85,5.428 c4.949,0,9.23-1.811,12.847-5.428l127.906-127.907c3.614-3.613,5.428-7.897,5.428-12.847 C228.407,141.229,226.594,136.948,222.979,133.331z" fill="#FFFFFF"/></symbol>
</svg>
