<svg xmlns="http://www.w3.org/2000/svg" style="display: none;"><symbol id="forum" viewBox="0 0 489.6 489.6"><title>speech-bubble</title><path d="M394.8,261.5V81.7c0-24.9-20.3-45.2-45.2-45.2H45.2C20.3,36.5,0,56.8,0,81.7v179.8c0,24.9,20.3,45.2,45.2,45.2h12.9v54.2 c0,10,8.1,18.1,18.2,18.1l0,0c5.2,0,10.2-2.3,13.7-6.3l57.1-66.1h202.6C374.5,306.7,394.8,286.4,394.8,261.5z M141.4,282.2 c-3.6,0-6.9,1.5-9.3,4.2l-49.6,57.3v-49.3c0-6.8-5.5-12.3-12.3-12.3h-25c-11.4,0-20.7-9.3-20.7-20.7V81.7 c0-11.4,9.3-20.7,20.7-20.7h304.4c11.4,0,20.7,9.3,20.7,20.7v179.8c0,11.4-9.3,20.7-20.7,20.7L141.4,282.2L141.4,282.2z"/><path d="M399.7,446.8c3.5,4.1,8.5,6.3,13.6,6.3c2.1,0,4.3-0.4,6.4-1.2c7.2-2.7,11.8-9.3,11.8-17v-54.2h12.9 c24.9,0,45.2-20.3,45.2-45.2V155.7c0-24.9-20.3-45.2-45.2-45.2c-6.8,0-12.3,5.5-12.3,12.2c0,6.8,5.5,12.3,12.3,12.3 c11.4,0,20.7,9.3,20.7,20.7v179.8c0,11.4-9.3,20.7-20.7,20.7h-25.1c-6.8,0-12.3,5.5-12.3,12.3v49.3l-49.6-57.3 c-2.3-2.7-5.7-4.2-9.3-4.2h-184c-6.8,0-12.3,5.5-12.3,12.3s5.5,12.3,12.3,12.3h178.4L399.7,446.8z"/><circle cx="197.4" cy="175.9" r="14.6"/><circle cx="246.3" cy="175.9" r="14.6"/><circle cx="148.5" cy="175.9" r="14.6"/></symbol><symbol id="help" viewBox="0 0 32 32"><title>question-mark</title><circle cx="16" cy="29" r="3"/><path d="m16,0c-6.2,0-10,4.2-10,8 0,4.7 4.7,7 7,7 1.1,0 2-0.9 2-2s-0.9-2-2-2c-0.2,0-0.5,0.1-0.8,0.1-1.7,0.3-4.2-1.4-4.2-3.1 0-3.1 4.9-5 8-5s8,1.9 8,5c0,5.7-10,8.3-10,14 0,1.1 0.9,2 2,2s2-0.9 2-2c0-0.2 0-0.4-0.1-0.5-0.3-0.9-0.1-2 0.4-2.8 0.9-1.3 2-2.3 3.3-3.5 2.2-2 4.4-4 4.4-7.2 0-3.8-3.8-8-10-8z"/></symbol><symbol id="squad" viewBox="-19 0 512 512.00101"><title>team</title><path d="m130.605469 271.492188c1.585937 3.925781 5.363281 6.304687 9.351562 6.304687 1.257813 0 2.539063-.234375 3.777344-.734375 5.160156-2.085938 7.65625-7.964844 5.570313-13.125l-.195313-.480469c-2.085937-5.164062-7.960937-7.660156-13.125-5.570312-5.164063 2.085937-7.65625 7.960937-5.570313 13.125zm0 0"/><path d="m412.226562 428.84375c-2.085937-5.160156-7.964843-7.65625-13.128906-5.570312-5.160156 2.085937-7.65625 7.964843-5.570312 13.125l.195312.480468c1.585938 3.925782 5.363282 6.308594 9.351563 6.308594 1.257812 0 2.535156-.238281 3.773437-.738281 5.164063-2.085938 7.65625-7.960938 5.570313-13.125zm0 0"/><path d="m463.277344 491.835938h-50.222656v-19.15625c0-5.570313-4.511719-10.082032-10.082032-10.082032-5.566406 0-10.082031 4.511719-10.082031 10.082032v19.15625h-28.132813v-46.171876c0-5.566406-4.515624-10.082031-10.082031-10.082031-5.570312 0-10.082031 4.515625-10.082031 10.082031v46.171876h-27.8125v-117.945313h76.113281v19.136719c0 5.570312 4.511719 10.082031 10.082031 10.082031 5.566407 0 10.082032-4.511719 10.082032-10.082031v-14.589844c3.09375 1.085938 6.414062 1.671875 9.875 1.671875 16.511718 0 29.949218-13.433594 29.949218-29.949219v-63.519531c0-17.480469-6.5-34.203125-18.296874-47.085937-6.800782-7.425782-15.023438-13.214844-24.089844-17.082032 13.050781-13.761718 21.070312-32.34375 21.070312-52.765625 0-42.3125-34.425781-76.734375-76.738281-76.734375-8.574219 0-17.117187 1.449219-25.179687 4.238282-13.359376-28.902344-42.625-49.003907-76.5-49.003907-10.082032 0-20.105469 1.820313-29.492188 5.320313-14.671875-31.578125-46.691406-53.527344-83.742188-53.527344-50.878906 0-92.273437 41.394531-92.273437 92.273438 0 25.804687 10.644531 49.167968 27.777344 65.929687-12.167969 4.597656-23.1875 12.019531-32.148438 21.816406-14.132812 15.449219-21.914062 35.492188-21.914062 56.445313v78.324218c0 19.066407 15.511719 34.578126 34.578125 34.578126 5.140625 0 10.023437-1.128907 14.414062-3.148438v145.617188h-60.265625c-5.566406 0-10.082031 4.515624-10.082031 10.082031 0 5.570312 4.515625 10.082031 10.082031 10.082031h453.195313c5.566406 0 10.082031-4.511719 10.082031-10.082031 0-5.566407-4.515625-10.082031-10.082031-10.082031zm-204.800782-177.046876v-78.324218c0-6.761719-.8125-13.425782-2.382812-19.875 13.179688-.453125 25.597656-3.953125 36.574219-9.8125 27.6875 3.914062 48.238281 27.398437 48.238281 55.703125v70.648437c0 6.625-5.386719 12.015625-12.011719 12.015625s-12.015625-5.390625-12.015625-12.015625c0-.484375-.035156-.964844-.101562-1.429687v-44.972657c0-5.570312-4.515625-10.082031-10.082032-10.082031-5.570312 0-10.082031 4.511719-10.082031 10.082031v51.496094h-47.316406c5.695313-6.164062 9.179687-14.398437 9.179687-23.433594zm174.238282-28.148437v63.519531c0 5.398438-4.386719 9.785156-9.785156 9.785156-5.394532 0-9.78125-4.386718-9.78125-9.785156 0-.460937-.03125-.914062-.09375-1.359375v-40.359375c0-5.570312-4.511719-10.085937-10.082032-10.085937-5.566406 0-10.082031 4.515625-10.082031 10.085937v45.28125h-39.292969c4.664063-5.582031 7.476563-12.765625 7.476563-20.59375v-70.648437c0-5.484375-.585938-10.898438-1.722657-16.164063 11.207032-.65625 21.777344-3.726562 31.191407-8.699218 24.230469 3.585937 42.171875 24.199218 42.171875 49.023437zm-77.890625-173.503906c31.195312 0 56.574219 25.378906 56.574219 56.570312 0 31.195313-25.378907 56.574219-56.574219 56.574219-.960938 0-1.925781-.027344-2.890625-.074219-2.964844-5.492187-6.617188-10.648437-10.914063-15.335937-7.832031-8.554688-17.386719-15.125-27.925781-19.351563 15-15.214843 24.269531-36.09375 24.269531-59.097656 0-5.480469-.523437-10.839844-1.527343-16.03125 6.046874-2.160156 12.410156-3.253906 18.988281-3.253906zm-101.679688-44.765625c35.320313 0 64.054688 28.734375 64.054688 64.054687 0 35.316407-28.734375 64.050781-64.054688 64.050781-1.644531 0-3.292969-.0625-4.933593-.1875-3.195313-5.832031-7.105469-11.308593-11.679688-16.300781-8.960938-9.78125-19.96875-17.191406-32.121094-21.785156 17.132813-16.761719 27.777344-40.125 27.777344-65.925781 0-6.734375-.722656-13.300782-2.101562-19.625 7.316406-2.816406 15.160156-4.28125 23.058593-4.28125zm-185.339843 23.902344c0-39.761719 32.347656-72.109376 72.109374-72.109376 39.761719 0 72.109376 32.347657 72.109376 72.109376 0 39.761718-32.347657 72.109374-72.109376 72.109374-39.761718 0-72.109374-32.347656-72.109374-72.109374zm-11.871094 236.929687c-7.949219 0-14.414063-6.464844-14.414063-14.414063v-78.324218c0-32.042969 23.367188-58.625 54.777344-62.890625 10.1875 5.488281 21.519531 9.117187 33.535156 10.425781v43.246094c0 5.570312 4.515625 10.085937 10.082031 10.085937 5.570313 0 10.082032-4.515625 10.082032-10.085937v-43.246094c12.015625-1.308594 23.347656-4.9375 33.535156-10.425781 31.417969 4.261719 54.78125 30.835937 54.78125 62.890625v78.324218c0 7.949219-6.46875 14.414063-14.417969 14.414063-7.945312 0-14.414062-6.464844-14.414062-14.414063 0-.511718-.035157-1.019531-.109375-1.511718v-40.363282c0-5.566406-4.515625-10.082031-10.085938-10.082031-5.566406 0-10.082031 4.515625-10.082031 10.082031v48.617188h-98.691406v-58.1875c0-5.570312-4.511719-10.085938-10.082031-10.085938-5.566407 0-10.082032 4.515626-10.082032 10.085938v51.445312c0 7.949219-6.464844 14.414063-14.414062 14.414063zm94.007812 162.632813v-102.421876c0-5.570312-4.515625-10.082031-10.082031-10.082031-5.570313 0-10.082031 4.511719-10.082031 10.082031v102.421876h-39.265625v-150.140626h98.691406v150.140626zm59.632813-133.449219h86.929687v133.449219h-38.027344v-80.648438c0-5.566406-4.515624-10.082031-10.085937-10.082031-5.566406 0-10.082031 4.515625-10.082031 10.082031v80.648438h-28.734375zm0 0"/></symbol><symbol id="office" viewBox="0 0 511.999 511.999"><title>office</title><g> <g> <path d="M142.715,82.068h-36.571c-5.77,0-10.449,4.679-10.449,10.449v57.469c0,5.77,4.679,10.449,10.449,10.449h36.571 c5.77,0,10.449-4.679,10.449-10.449V92.517C153.164,86.747,148.485,82.068,142.715,82.068z M132.266,139.537h-15.674v-36.571 h15.674V139.537z"/> </g> </g><g> <g> <path d="M215.858,82.068h-36.571c-5.77,0-10.449,4.679-10.449,10.449v57.469c0,5.77,4.679,10.449,10.449,10.449h36.571 c5.77,0,10.449-4.679,10.449-10.449V92.517C226.307,86.747,221.628,82.068,215.858,82.068z M205.409,139.537h-15.673v-36.571 h15.673V139.537z"/> </g> </g><g> <g> <path d="M142.715,184.467h-36.571c-5.77,0-10.449,4.679-10.449,10.449v57.469c0,5.77,4.679,10.449,10.449,10.449h36.571 c5.77,0,10.449-4.679,10.449-10.449v-57.469C153.164,189.147,148.485,184.467,142.715,184.467z M132.266,241.937h-15.674v-36.571 h15.674V241.937z"/> </g> </g><g> <g> <path d="M215.858,184.467h-36.571c-5.77,0-10.449,4.679-10.449,10.449v57.469c0,5.77,4.679,10.449,10.449,10.449h36.571 c5.77,0,10.449-4.679,10.449-10.449v-57.469C226.307,189.147,221.628,184.467,215.858,184.467z M205.409,241.937h-15.673v-36.571 h15.673V241.937z"/> </g> </g><g> <g> <path d="M142.715,286.867h-36.571c-5.77,0-10.449,4.679-10.449,10.449v57.469c0,5.77,4.679,10.449,10.449,10.449h36.571 c5.77,0,10.449-4.679,10.449-10.449v-57.469C153.164,291.547,148.485,286.867,142.715,286.867z M132.266,344.337h-15.674v-36.571 h15.674V344.337z"/> </g> </g><g> <g> <path d="M215.858,286.867h-36.571c-5.77,0-10.449,4.679-10.449,10.449v57.469c0,5.77,4.679,10.449,10.449,10.449h36.571 c5.77,0,10.449-4.679,10.449-10.449v-57.469C226.307,291.547,221.628,286.867,215.858,286.867z M205.409,344.337h-15.673v-36.571 h15.673V344.337z"/> </g> </g><g> <g> <path d="M142.715,389.267h-36.571c-5.77,0-10.449,4.679-10.449,10.449v57.469c0,5.77,4.679,10.449,10.449,10.449h36.571 c5.77,0,10.449-4.679,10.449-10.449v-57.469C153.164,393.947,148.485,389.267,142.715,389.267z M132.266,446.737h-15.674v-36.571 h15.674V446.737z"/> </g> </g><g> <g> <path d="M215.858,389.267h-36.571c-5.77,0-10.449,4.679-10.449,10.449v57.469c0,5.77,4.679,10.449,10.449,10.449h36.571 c5.77,0,10.449-4.679,10.449-10.449v-57.469C226.307,393.947,221.628,389.267,215.858,389.267z M205.409,446.737h-15.673v-36.571 h15.673V446.737z"/> </g> </g><g> <g> <path d="M400.506,422.486h-0.187c-5.77,0-10.449,4.679-10.449,10.449c0,5.77,4.679,10.449,10.449,10.449h0.187 c5.77,0,10.449-4.679,10.449-10.449C410.955,427.165,406.276,422.486,400.506,422.486z"/> </g> </g><g> <g> <path d="M400.506,176.087h-0.187c-5.77,0-10.449,4.679-10.449,10.449c0,5.77,4.679,10.449,10.449,10.449h0.187 c5.77,0,10.449-4.679,10.449-10.449C410.955,180.766,406.276,176.087,400.506,176.087z"/> </g> </g><g> <g> <path d="M400.506,225.367h-0.187c-5.77,0-10.449,4.679-10.449,10.449c0,5.77,4.679,10.449,10.449,10.449h0.187 c5.77,0,10.449-4.679,10.449-10.449C410.955,230.046,406.276,225.367,400.506,225.367z"/> </g> </g><g> <g> <path d="M400.506,274.646h-0.187c-5.77,0-10.449,4.679-10.449,10.449c0,5.77,4.679,10.449,10.449,10.449h0.187 c5.77,0,10.449-4.679,10.449-10.449C410.955,279.325,406.276,274.646,400.506,274.646z"/> </g> </g><g> <g> <path d="M400.506,323.926h-0.187c-5.77,0-10.449,4.679-10.449,10.449c0,5.77,4.679,10.449,10.449,10.449h0.187 c5.77,0,10.449-4.679,10.449-10.449C410.955,328.605,406.276,323.926,400.506,323.926z"/> </g> </g><g> <g> <path d="M400.506,373.206h-0.187c-5.77,0-10.449,4.679-10.449,10.449c0,5.77,4.679,10.449,10.449,10.449h0.187 c5.77,0,10.449-4.679,10.449-10.449C410.955,377.885,406.276,373.206,400.506,373.206z"/> </g> </g><g> <g> <path d="M479.085,491.101H450.47V136.957c0-5.77-4.679-10.449-10.449-10.449H266.535V55.379c0-4.845-3.331-9.055-8.046-10.169 L68.318,0.279c-3.109-0.732-6.382-0.006-8.887,1.976c-2.506,1.98-3.965,4.999-3.965,8.193v480.653H32.914 c-5.77,0-10.449,4.679-10.449,10.449c0,5.77,4.679,10.449,10.449,10.449h446.171c5.77,0,10.449-4.679,10.449-10.449 C489.534,495.78,484.855,491.101,479.085,491.101z M245.637,136.957v354.144H76.364V23.652l169.273,39.993V136.957z M429.572,491.101H266.535v-47.716h97.872c5.77,0,10.449-4.679,10.449-10.449c0-5.77-4.679-10.449-10.449-10.449h-97.872v-28.381 h97.872c5.77,0,10.449-4.679,10.449-10.449c0-5.77-4.679-10.449-10.449-10.449h-97.872v-28.383h97.872 c5.77,0,10.449-4.679,10.449-10.449c0-5.77-4.679-10.449-10.449-10.449h-97.872v-28.382h97.872c5.77,0,10.449-4.679,10.449-10.449 c0-5.77-4.679-10.449-10.449-10.449h-97.872v-28.382h97.872c5.77,0,10.449-4.679,10.449-10.449c0-5.77-4.679-10.449-10.449-10.449 h-97.872v-28.382h97.872c5.77,0,10.449-4.679,10.449-10.449c0-5.77-4.679-10.449-10.449-10.449h-97.872v-28.681h163.036V491.101z"/> </g> </g></symbol><symbol id="competitions" viewBox="0 0 502 502"><title>trophy</title><path d="M492,58.458h-89.722c-2.205-7.839-4.907-15.553-8.105-23.122c-1.564-3.702-5.193-6.107-9.211-6.107H116.083 c-4.019,0-7.647,2.405-9.211,6.107c-3.198,7.569-5.901,15.283-8.105,23.122H10c-5.523,0-10,4.478-10,10 c0,40.449,13.161,78.557,37.058,107.303c23.517,28.288,54.671,44.294,88.058,45.347c0.905,1.334,1.821,2.662,2.762,3.978 c21.895,30.639,51.617,54.018,86.281,67.946v23.333h-12.447c-5.523,0-10,4.478-10,10c0,5.522,4.477,10,10,10h12.447v17.826 h-12.447c-5.523,0-10,4.478-10,10c0,5.522,4.477,10,10,10h12.447v23.558h-26.107c-29.848,0-54.131,24.283-54.131,54.131v10.89 c0,5.522,4.477,10,10,10h213.204c5.523,0,10-4.478,10-10v-10.89c0-29.848-24.283-54.131-54.131-54.131h-26.107v-23.558h13.402 c5.523,0,10-4.478,10-10c0-5.522-4.477-10-10-10h-13.402v-17.826h13.402c5.523,0,10-4.478,10-10c0-5.522-4.477-10-10-10h-13.402 v-23.333c34.664-13.929,64.386-37.308,86.281-67.946c23.792-33.293,36.368-72.591,36.368-113.644 c0-11.151-0.935-22.163-2.771-32.984h74.922c-2.949,46.85-26.431,89.208-61.505,109.752c-4.766,2.792-6.366,8.918-3.575,13.683 c1.861,3.178,5.204,4.948,8.638,4.948c1.717,0,3.457-0.443,5.045-1.373c21.317-12.486,39.293-31.729,51.984-55.649 C495.179,125.496,502,97.362,502,68.458C502,62.937,497.523,58.458,492,58.458z M20.305,78.458H94.28 c-1.837,10.822-2.771,21.833-2.771,32.984c0,31.035,7.192,61.064,20.979,88.257C62.861,190.626,24.1,140.404,20.305,78.458z M312.993,417.749c18.82,0,34.131,15.311,34.131,34.131v0.89H153.92v-0.89c0-18.82,15.311-34.131,34.131-34.131H312.993z M266.886,374.191v23.558h-32.728v-23.558H266.886z M234.158,354.191v-17.826h32.728v17.826H234.158z M273.492,276.738 c-3.964,1.431-6.605,5.192-6.605,9.406v30.221h-32.728v-30.221c0-4.214-2.642-7.976-6.605-9.406 c-69.409-25.05-116.043-91.478-116.043-165.296c0-13.205,1.447-26.189,4.307-38.847c0.519-1.139,0.827-2.391,0.883-3.711 c1.657-6.652,3.703-13.21,6.148-19.656H378.2c7.526,19.845,11.337,40.74,11.337,62.214 C389.535,185.261,342.901,251.688,273.492,276.738z"/><path d="M208.456,226.11c-21.505-11.884-39.218-32.593-49.875-58.313c-2.113-5.102-7.965-7.525-13.066-5.41 c-5.103,2.114-7.525,7.964-5.411,13.066c12.384,29.889,33.223,54.096,58.678,68.163c1.534,0.847,3.192,1.249,4.828,1.249 c3.521,0,6.938-1.864,8.761-5.165C215.043,234.866,213.29,228.783,208.456,226.11z"/><path d="M141.488,148.237c5.445-0.925,9.109-6.089,8.184-11.533c-1.428-8.402-2.151-17.053-2.151-25.712c0-5.522-4.477-10-10-10 c-5.523,0-10,4.478-10,10c0,9.778,0.819,19.556,2.434,29.062c0.829,4.878,5.06,8.327,9.847,8.327 C140.357,148.382,140.921,148.335,141.488,148.237z"/></symbol><symbol id="settings" viewBox="0 0 512 512"><title>settings</title><g transform="matrix(1.1,0,0,1.1002864,-25.59995,-25.72342)" id="g3713"><path id="path3705" d="m 435.648,295.275 -33.621,-26.347 c 0.405,-4.245 0.661,-8.576 0.661,-12.907 0,-4.395 -0.256,-8.768 -0.683,-13.163 l 33.941,-26.624 c 7.509,-6.357 9.323,-16.981 4.416,-25.152 L 404.01,128.255 c -4.949,-8.235 -15.04,-11.776 -24.277,-8.299 l -39.531,15.893 c -7.104,-5.077 -14.507,-9.387 -22.4,-13.099 L 311.807,80.19 C 310.059,70.976 301.675,64 292.267,64 h -72.533 c -9.493,0 -17.899,7.125 -19.627,16.939 l -5.931,42.112 c -7.957,3.776 -15.445,8.149 -22.379,13.056 l -39.765,-16 c -8.981,-3.349 -19.072,0.149 -24.107,8.533 l -36.181,62.549 c -4.992,8.32 -3.179,18.944 4.629,25.536 l 33.621,26.368 c -0.405,4.245 -0.661,8.576 -0.661,12.907 0,4.395 0.256,8.768 0.661,13.141 l -33.941,26.624 c -7.509,6.357 -9.323,16.981 -4.416,25.152 l 36.352,62.827 c 4.949,8.235 15.061,11.776 24.277,8.299 l 39.531,-15.893 c 7.104,5.077 14.507,9.387 22.4,13.099 l 5.995,42.56 c 1.749,9.216 10.133,16.192 19.541,16.192 h 72.533 c 9.493,0 17.899,-7.125 19.669,-16.939 l 5.909,-42.112 c 7.957,-3.776 15.445,-8.149 22.379,-13.056 l 39.765,16 c 9.003,3.392 19.093,-0.149 24.107,-8.533 l 36.181,-62.549 c 4.993,-8.3 3.18,-18.945 -4.628,-25.537 z m -49.323,76.16 -43.712,-17.579 c -3.52,-1.451 -7.531,-0.875 -10.539,1.472 -8.341,6.507 -17.835,12.053 -28.203,16.491 -3.413,1.472 -5.845,4.629 -6.357,8.32 l -5.248,46.528 h -71.275 l -6.485,-46.272 c -0.533,-3.712 -2.965,-6.891 -6.443,-8.341 -10.219,-4.267 -19.413,-9.664 -28.139,-16.448 -3.008,-2.325 -6.997,-2.88 -10.539,-1.472 l -43.712,17.6 -34.923,-60.352 37.12,-29.099 c 2.965,-2.325 4.48,-6.037 4.011,-9.771 -0.725,-5.504 -1.216,-11.008 -1.216,-16.512 0,-5.483 0.491,-10.944 1.195,-16.192 0.491,-3.733 -1.003,-7.488 -3.989,-9.813 l -37.12,-29.099 34.923,-60.352 43.712,17.6 c 3.499,1.408 7.509,0.832 10.539,-1.493 8.341,-6.485 17.835,-12.032 28.203,-16.491 3.435,-1.472 5.845,-4.608 6.357,-8.299 l 5.248,-46.528 h 71.275 l 6.485,46.272 c 0.533,3.712 2.965,6.891 6.443,8.341 10.219,4.267 19.413,9.664 28.139,16.448 3.008,2.347 7.04,2.901 10.539,1.472 l 43.712,-17.621 34.923,60.352 -37.12,29.099 c -2.965,2.325 -4.48,6.037 -4.011,9.771 0.725,5.504 1.216,11.008 1.216,16.512 0,5.483 -0.491,10.944 -1.195,16.192 -0.491,3.733 1.003,7.488 3.989,9.813 l 37.12,29.099 z" /><path id="path3707" d="m 256,192 c -35.285,0 -64,28.715 -64,64 0,35.285 28.715,64 64,64 35.285,0 64,-28.715 64,-64 0,-35.285 -28.715,-64 -64,-64 z m 0,106.667 c -23.531,0 -42.667,-19.136 -42.667,-42.667 0,-23.531 19.136,-42.667 42.667,-42.667 23.531,0 42.667,19.136 42.667,42.667 0,23.531 -19.136,42.667 -42.667,42.667 z" /></symbol></svg>
