<svg xmlns="http://www.w3.org/2000/svg" style="display: none;">
  <symbol id="injury" viewBox="0 0 512 512">
    <title>Injury</title>
    <polygon style="fill:#EF5959;"
      points="504.396,162.725 349.275,162.725 349.275,7.604 162.725,7.604 162.725,162.725 7.604,162.725 7.604,349.275 162.725,349.275 162.725,504.396 349.275,504.396 349.275,349.275 504.396,349.275 " />
    <path
      d="M349.275,512H162.725c-4.199,0-7.604-3.405-7.604-7.604V356.879h-53.096c-4.199,0-7.604-3.405-7.604-7.604 c0-4.199,3.405-7.604,7.604-7.604h60.7c4.199,0,7.604,3.405,7.604,7.604v147.517h171.343V349.275c0-4.199,3.405-7.604,7.604-7.604 h147.517V170.329H349.275c-4.199,0-7.604-3.405-7.604-7.604v-81.23c0-4.199,3.405-7.604,7.604-7.604 c4.199,0,7.604,3.405,7.604,7.604v73.626h147.517c4.199,0,7.604,3.405,7.604,7.604v186.551c0,4.199-3.405,7.604-7.604,7.604H356.879 v147.517C356.879,508.595,353.475,512,349.275,512z" />
    <path
      d="M76.678,356.879H7.604c-4.199,0-7.604-3.405-7.604-7.604V162.725c0-4.199,3.405-7.604,7.604-7.604h147.517V7.604 c0-4.199,3.405-7.604,7.604-7.604h186.551c4.199,0,7.604,3.405,7.604,7.604v48.545c0,4.199-3.405,7.604-7.604,7.604 c-4.199,0-7.604-3.405-7.604-7.604V15.208H170.329v147.517c0,4.199-3.405,7.604-7.604,7.604H15.208v171.343h61.47 c4.199,0,7.604,3.405,7.604,7.604C84.282,353.475,80.878,356.879,76.678,356.879z" />
  </symbol>
  <symbol id="national-player" viewBox="0 -11 494.8105 494">
    <title>National Player</title>
    <path
      d="m254.992188 13.882812 52.824218 162.574219h170.945313c3.464843 0 6.535156 2.230469 7.609375 5.527344 1.070312 3.296875-.101563 6.90625-2.90625 8.945313l-138.296875 100.480468 52.800781 162.574219c1.070312 3.296875-.101562 6.910156-2.90625 8.945313-2.804688 2.039062-6.601562 2.039062-9.40625 0l-138.273438-100.480469-138.292968 100.480469c-2.804688 2.039062-6.601563 2.039062-9.40625 0-2.804688-2.035157-3.980469-5.648438-2.90625-8.945313l52.796875-162.574219-138.269531-100.480468c-2.804688-2.039063-3.976563-5.648438-2.90625-8.945313 1.070312-3.296875 4.144531-5.527344 7.609374-5.527344h170.945313l52.800781-162.574219c1.058594-3.316406 4.136719-5.566406 7.617188-5.566406 3.480468 0 6.5625 2.25 7.621094 5.566406zm0 0"
      fill="#ffda44" />
    <g fill="#231f20">
      <path
        d="m493.984375 179.511719c-2.078125-6.640625-8.265625-11.132813-15.222656-11.054688h-165.128907l-51.046874-157.046875c-2.160157-6.566406-8.289063-11.003906-15.203126-11.003906-6.910156 0-13.039062 4.4375-15.199218 11.003906l-51.046875 157.046875h-165.128907c-6.929687-.003906-13.074218 4.457031-15.222656 11.046875-2.144531 6.589844.195313 13.8125 5.800782 17.890625l133.597656 97.070313-51.015625 157.046875c-2.136719 6.59375.207031 13.808593 5.8125 17.882812s13.195312 4.074219 18.804687.007813l133.597656-97.066406 133.601563 97.066406c5.582031 4.160156 13.234375 4.160156 18.816406 0 5.671875-4.023438 8.03125-11.292969 5.808594-17.882813l-51.023437-157.054687 133.597656-97.070313c5.664062-4.03125 8.023437-11.292969 5.800781-17.882812zm-153.519531 105.433593c-2.800782 2.035157-3.972656 5.644532-2.90625 8.9375l52.824218 162.574219-138.292968-100.480469c-2.804688-2.039062-6.605469-2.039062-9.410156 0l-138.296876 100.480469 52.800782-162.574219c1.066406-3.292968-.105469-6.902343-2.902344-8.9375l-138.273438-100.488281h170.945313c3.464844 0 6.535156-2.230469 7.605469-5.527343l52.824218-162.671876v.085938l52.800782 162.585938c1.070312 3.296874 4.144531 5.527343 7.609375 5.527343h170.96875zm0 0" />
      <path
        d="m335.382812 208.457031h56c4.417969 0 8-3.582031 8-8s-3.582031-8-8-8h-56c-4.417968 0-8 3.582031-8 8s3.582032 8 8 8zm0 0" />
      <path
        d="m415.382812 208.457031h8c4.417969 0 8-3.582031 8-8s-3.582031-8-8-8h-8c-4.417968 0-8 3.582031-8 8s3.582032 8 8 8zm0 0" />
    </g>
  </symbol>
  <symbol id="national-prospect" viewBox="0 -11 494.8105 494">
    <title>National Prospect</title>
    <path
      d="m254.992188 13.882812 52.824218 162.574219h170.945313c3.464843 0 6.535156 2.230469 7.609375 5.527344 1.070312 3.296875-.101563 6.90625-2.90625 8.945313l-138.296875 100.480468 52.800781 162.574219c1.070312 3.296875-.101562 6.910156-2.90625 8.945313-2.804688 2.039062-6.601562 2.039062-9.40625 0l-138.273438-100.480469-138.292968 100.480469c-2.804688 2.039062-6.601563 2.039062-9.40625 0-2.804688-2.035157-3.980469-5.648438-2.90625-8.945313l52.796875-162.574219-138.269531-100.480468c-2.804688-2.039063-3.976563-5.648438-2.90625-8.945313 1.070312-3.296875 4.144531-5.527344 7.609374-5.527344h170.945313l52.800781-162.574219c1.058594-3.316406 4.136719-5.566406 7.617188-5.566406 3.480468 0 6.5625 2.25 7.621094 5.566406zm0 0"
      fill="#ffda44" data-original="#FFDA44" class="active-path" style="fill:#00A8FF" />
    <g fill="#231f20">
      <path
        d="m493.984375 179.511719c-2.078125-6.640625-8.265625-11.132813-15.222656-11.054688h-165.128907l-51.046874-157.046875c-2.160157-6.566406-8.289063-11.003906-15.203126-11.003906-6.910156 0-13.039062 4.4375-15.199218 11.003906l-51.046875 157.046875h-165.128907c-6.929687-.003906-13.074218 4.457031-15.222656 11.046875-2.144531 6.589844.195313 13.8125 5.800782 17.890625l133.597656 97.070313-51.015625 157.046875c-2.136719 6.59375.207031 13.808593 5.8125 17.882812s13.195312 4.074219 18.804687.007813l133.597656-97.066406 133.601563 97.066406c5.582031 4.160156 13.234375 4.160156 18.816406 0 5.671875-4.023438 8.03125-11.292969 5.808594-17.882813l-51.023437-157.054687 133.597656-97.070313c5.664062-4.03125 8.023437-11.292969 5.800781-17.882812zm-153.519531 105.433593c-2.800782 2.035157-3.972656 5.644532-2.90625 8.9375l52.824218 162.574219-138.292968-100.480469c-2.804688-2.039062-6.605469-2.039062-9.410156 0l-138.296876 100.480469 52.800782-162.574219c1.066406-3.292968-.105469-6.902343-2.902344-8.9375l-138.273438-100.488281h170.945313c3.464844 0 6.535156-2.230469 7.605469-5.527343l52.824218-162.671876v.085938l52.800782 162.585938c1.070312 3.296874 4.144531 5.527343 7.609375 5.527343h170.96875zm0 0"
        data-original="#000000" class="" style="fill:#000000" />
      <path
        d="m335.382812 208.457031h56c4.417969 0 8-3.582031 8-8s-3.582031-8-8-8h-56c-4.417968 0-8 3.582031-8 8s3.582032 8 8 8zm0 0"
        data-original="#000000" class="" style="fill:#000000" />
      <path
        d="m415.382812 208.457031h8c4.417969 0 8-3.582031 8-8s-3.582031-8-8-8h-8c-4.417968 0-8 3.582031-8 8s3.582032 8 8 8zm0 0"
        data-original="#000000" class="" style="fill:#000000" />
    </g>
  </symbol>
  <symbol id="card-nation" viewBox="0 0 512 512">
    <title>Yellow Card</title>
    <g transform="translate(0 1)">
      <path style="fill:#BFA885;"
        d="M230.025,434.371l-9.387,9.387c-6.382,6.849-15.993,9.668-25.064,7.352 c-9.07-2.316-16.153-9.399-18.469-18.469c-2.316-9.07,0.503-18.682,7.352-25.064l31.829-31.829l-31.829,31.829l-12.117,12.032 c-6.382,6.849-15.993,9.668-25.064,7.352c-9.07-2.316-16.153-9.399-18.469-18.469c-2.316-9.07,0.503-18.682,7.352-25.064 l24.576-24.576l-24.576,24.576c-6.382,6.849-15.993,9.668-25.064,7.352s-16.153-9.399-18.469-18.469s0.503-18.682,7.352-25.064 l35.925-35.925l144.299-5.12L230.025,434.371z" />
      <path style="fill:#FDD834;"
        d="M339.934,24.6v341.333h-93.867v-42.667h-93.867c-9.414-0.028-17.039-7.653-17.067-17.067V24.6 c0.028-9.414,7.653-17.039,17.067-17.067h170.667C332.281,7.561,339.906,15.186,339.934,24.6z" />
      <path style="fill:#FFEB3A;"
        d="M314.334,24.6v341.333h-93.867v-42.667h-68.267c-9.414-0.028-17.039-7.653-17.067-17.067V24.6 c0.028-9.414,7.653-17.039,17.067-17.067h145.067C306.681,7.561,314.306,15.186,314.334,24.6z" />
      <path style="fill:#BFA885;"
        d="M410.419,412.696l-44.885,89.771h-99.157c-11.884,0.036-22.218-8.139-24.917-19.712 l-57.173-242.859c-3.241-13.818,3.291-28.076,15.872-34.645c1.441-0.713,2.922-1.34,4.437-1.877 c3.13-1.076,6.418-1.624,9.728-1.621c11.258,0.047,21.622,6.142,27.136,15.957l68.181,122.624l0.085,0.256 c3.57,6.422,11.032,9.617,18.143,7.769c7.111-1.848,12.073-8.272,12.065-15.619V212.333l35.584,35.584 c10.254,10.236,17.716,22.927,21.675,36.864l18.944,66.304C422.022,371.613,419.981,393.602,410.419,412.696z" />
      <path style="fill:#FFE0B2;"
        d="M382.089,412.696l-44.885,89.771h-70.827c-11.884,0.036-22.218-8.139-24.917-19.712 l-57.173-242.859c-3.241-13.818,3.291-28.076,15.872-34.645c5.524,2.72,10.08,7.068,13.056,12.459l68.181,122.88 c2.874,5.121,8.293,8.287,14.165,8.277c3.328,0,6.485-1.024,14.08-8.533l0.085,0.256c3.57,6.422,11.032,9.617,18.143,7.769 c7.111-1.848,12.073-8.272,12.065-15.619v-92.075l7.253,7.253c10.25,10.253,17.736,22.936,21.76,36.864l18.944,66.304 C393.705,371.628,391.635,393.6,382.089,412.696z" />
    </g>
    <g>
      <path
        d="M118.067,400.452c0.777,0,1.51-0.171,2.278-0.222c-0.06,0.768-0.23,1.51-0.23,2.287 c-0.077,11.761,5.951,22.721,15.925,28.955c9.974,6.234,22.467,6.85,33.005,1.628c2.279,12.071,10.899,21.971,22.542,25.889 c11.643,3.918,24.494,1.242,33.607-6.996l7.919,33.69c3.585,15.447,17.371,26.365,33.229,26.317h99.191 c3.25,0.018,6.227-1.812,7.68-4.719l44.885-89.779c10.522-20.999,12.772-45.184,6.306-67.763l-18.944-66.287 c-4.398-15.336-12.619-29.304-23.893-40.593l-33.101-33.058V25.6c0-14.138-11.461-25.6-25.6-25.6H152.201 c-14.138,0-25.6,11.462-25.6,25.6v281.6c0,0.734,0.154,1.425,0.213,2.142l-32.922,32.922c-9.71,9.775-12.591,24.428-7.305,37.151 C91.873,392.138,104.29,400.436,118.067,400.452z M214.605,438.724c-4.243,4.611-10.672,6.525-16.747,4.987 c-6.074-1.538-10.817-6.281-12.355-12.355c-1.538-6.074,0.376-12.503,4.987-16.747l20.966-20.966l9.19,39.04L214.605,438.724z M143.667,25.6c0-4.713,3.82-8.533,8.533-8.533h170.667c4.713,0,8.533,3.821,8.533,8.533v281.6c0,4.713,3.82,8.533,8.533,8.533 s8.533-3.82,8.533-8.533v-73.267l21.001,21.001c9.223,9.235,15.944,20.664,19.533,33.212l18.944,66.287 c5.314,18.476,3.486,38.275-5.12,55.467l-42.564,85.035h-93.918c-7.927,0.025-14.818-5.435-16.606-13.158L192.58,238.933 c-2.571-10.9,3.293-22.025,13.738-26.065c10.445-4.039,22.269,0.246,27.7,10.039l72.858,131.14 c1.482,2.665,4.272,4.336,7.321,4.385c3.048,0.049,5.891-1.532,7.458-4.147c1.567-2.615,1.619-5.868,0.137-8.533l-72.858-131.166 c-9.57-17.235-30.385-24.773-48.772-17.662c-18.387,7.111-28.714,26.692-24.197,45.882l17.195,72.926h-40.96 c-4.713,0-8.533-3.82-8.533-8.533V25.6z M106.01,354.278l28.587-28.587c4.731,4.552,11.039,7.099,17.604,7.108h44.945 l9.711,41.293l-40.55,40.482c-6.643,6.631-17.393,6.654-24.064,0.051c-3.233-3.196-5.053-7.554-5.053-12.1 c0-4.547,1.819-8.904,5.053-12.1l24.542-24.542c3.234-3.348,3.188-8.671-0.104-11.962s-8.614-3.338-11.962-0.104l-24.576,24.576 c-6.737,6.399-17.3,6.422-24.064,0.051c-3.229-3.188-5.051-7.534-5.061-12.073s1.794-8.892,5.01-12.094H106.01z" />
      <path
        d="M169.267,110.933c4.713,0,8.533-3.821,8.533-8.533V51.2h42.667c4.713,0,8.533-3.821,8.533-8.533s-3.821-8.533-8.533-8.533 h-42.667c-9.426,0-17.067,7.641-17.067,17.067v51.2C160.734,107.113,164.554,110.933,169.267,110.933z" />
      <path
        d="M254.601,51.2h25.6c4.713,0,8.533-3.821,8.533-8.533s-3.82-8.533-8.533-8.533h-25.6c-4.713,0-8.533,3.821-8.533,8.533 S249.888,51.2,254.601,51.2z" />
      <path
        d="M169.267,162.133c4.713,0,8.533-3.821,8.533-8.533v-17.067c0-4.713-3.821-8.533-8.533-8.533 c-4.713,0-8.533,3.821-8.533,8.533V153.6C160.734,158.313,164.554,162.133,169.267,162.133z" />
    </g>
  </symbol>
  <symbol id="card" viewBox="0 0 512 512">
    <title>Red Card</title>
    <g transform="translate(1 1)">
      <path style="fill:#BFA885;"
        d="M181.642,425.667h-18.005c-14.138,0-25.6-11.462-25.6-25.6c0-14.138,11.462-25.6,25.6-25.6h-25.6 c-14.138,0-25.6-11.462-25.6-25.6c0-14.138,11.462-25.6,25.6-25.6h119.467v42.667L181.642,425.667z" />
      <path style="fill:#AD1457;"
        d="M334.303,24.6v281.6c0.009,3.038-0.818,6.019-2.389,8.619l-91.477,8.448H146.57 c-9.414-0.028-17.039-7.653-17.067-17.067V24.6c0.028-9.414,7.653-17.039,17.067-17.067h170.667 C326.651,7.561,334.275,15.186,334.303,24.6z" />
      <path style="fill:#E91E63;"
        d="M308.703,24.6v281.6c0.009,3.038-0.818,6.019-2.389,8.619l-91.477,8.448H146.57 c-9.414-0.028-17.039-7.653-17.067-17.067V24.6c0.028-9.414,7.653-17.039,17.067-17.067h145.067 C301.051,7.561,308.675,15.186,308.703,24.6z" />
      <path style="fill:#FFE0B2;"
        d="M334.303,255v35.703c-0.001,2.141-1.589,3.95-3.712,4.228c-2.123,0.279-4.123-1.059-4.677-3.127 l-25.745-96.538l-19.541-63.744c-3.465-12.354-15.541-20.235-28.245-18.432l-6.059,0.853 c-17.521,2.473-29.824,18.536-27.648,36.096c5.461,45.227,15.787,126.123,21.76,156.16c1.082,5.65,0.966,11.464-0.341,17.067 c-3.755,17.067-16.64,34.133-29.525,51.2c-12.885,17.067-25.6,34.133-28.928,51.2c-0.607,2.804-0.922,5.664-0.939,8.533 c-0.149,25.129,8.965,49.432,25.6,68.267h136.533l51.371-146.859c5.344-15.23,4.298-31.975-2.901-46.421l-57.003-113.92V255z" />
      <path style="fill:#BFA885;"
        d="M394.208,355.608l-51.371,146.859h-29.184l51.371-146.859c5.344-15.23,4.298-31.975-2.901-46.421 l-27.819-55.637v-58.283l57.003,113.92C398.505,323.633,399.552,340.378,394.208,355.608z" />
    </g>
    <g>
      <path
        d="M135.427,383.633c-3.198,5.255-4.9,11.283-4.924,17.434c0,18.851,15.282,34.133,34.133,34.133h8.533 c-0.19,27.398,9.827,53.885,28.1,74.3c1.6,1.6,3.77,2.5,6.033,2.5h136.533c3.627,0,6.858-2.293,8.055-5.717l51.354-146.825 c6.095-17.418,4.901-36.56-3.311-53.086l-56.098-112.119V25.6c0-14.138-11.461-25.6-25.6-25.6H147.57 c-14.138,0-25.6,11.462-25.6,25.6v281.6c0.026,4.075,1.039,8.084,2.953,11.682c-14.006,6.312-22.031,21.239-19.571,36.403 C107.812,370.449,120.145,382.073,135.427,383.633z M384.66,314.027c6.161,12.392,7.057,26.747,2.483,39.808l-49.365,141.099 H211.161c-13.515-16.98-20.889-38.032-20.924-59.733c0.016-2.323,0.279-4.637,0.785-6.903 c3.004-15.428,15.36-31.829,27.358-47.684c12.8-16.956,25.933-34.466,30.524-52.642c0.556-1.156,0.847-2.421,0.853-3.703v-0.128 c1.182-6.145,1.182-12.458,0-18.603c-5.41-27.23-15.044-100.796-21.658-155.563c-1.655-12.967,7.465-24.839,20.42-26.581 l6.059-0.853c8.459-1.153,16.481,4.081,18.833,12.288l51.294,183.322l2.389,8.448c1.042,3.671,4.393,6.204,8.209,6.204h8.533 c4.713,0,8.533-3.82,8.533-8.533s-3.821-8.533-8.533-8.533h-1.707c1.066-2.722,1.643-5.611,1.707-8.533v-74.803L384.66,314.027z M139.037,25.6c0-4.713,3.821-8.533,8.533-8.533h170.667c4.713,0,8.533,3.821,8.533,8.533v236.587l-36.932-131.994 c-4.694-16.407-20.734-26.868-37.641-24.55l-6.101,0.853c-22.029,3.266-37.48,23.44-34.893,45.559 c2.406,19.917,14.763,121.079,21.862,156.757c0.431,2.277,0.612,4.595,0.538,6.912H147.57c-4.713,0-8.533-3.82-8.533-8.533V25.6z M126.979,337.809c3.189-3.213,7.531-5.017,12.058-5.009l90.172,0c-6.775,13.362-14.978,25.951-24.465,37.547 c-12.082,14.274-21.77,30.412-28.689,47.787h-11.418c-9.426,0-17.067-7.641-17.067-17.067S155.211,384,164.637,384h8.533 c4.713,0,8.533-3.821,8.533-8.533c0-4.713-3.82-8.533-8.533-8.533h-34.133c-6.896-0.008-13.11-4.166-15.748-10.538 C120.651,350.023,122.107,342.69,126.979,337.809z" />
      <path
        d="M164.637,110.933c4.713,0,8.533-3.821,8.533-8.533V51.2h42.667c4.713,0,8.533-3.821,8.533-8.533s-3.821-8.533-8.533-8.533 H173.17c-9.426,0-17.067,7.641-17.067,17.067v51.2C156.103,107.113,159.924,110.933,164.637,110.933z" />
      <path
        d="M249.97,51.2h25.6c4.713,0,8.533-3.821,8.533-8.533s-3.82-8.533-8.533-8.533h-25.6c-4.713,0-8.533,3.821-8.533,8.533 S245.257,51.2,249.97,51.2z" />
      <path
        d="M164.637,162.133c4.713,0,8.533-3.821,8.533-8.533v-17.067c0-4.713-3.82-8.533-8.533-8.533s-8.533,3.821-8.533,8.533 V153.6C156.103,158.313,159.924,162.133,164.637,162.133z" />
    </g>
  </symbol>
  <symbol id="stabilising" viewBox="0 -44 512 511">
    <title>Stabilised</title>
    <path
      d="m472 233.042969c16.558594 0 30-13.441407 30-30 0-16.570313-13.429688-30-30-30-20.429688 0-113.566406 0-133.570312 0l-.03125-.011719c5.160156-18.300781 17.292968-56.28125 23.070312-75.058594 23.761719-60.300781-46.4375-116.378906-56.199219-70.820312-18.464843 92.03125-35.429687 145.890625-169.269531 145.890625v200l6.621094 2.410156c68.390625 24.867187 120.609375 37.589844 193.378906 37.589844h76c16.558594 0 30-13.441407 30-30 0-16.570313-13.429688-30-30-30h40c16.558594 0 30-13.441407 30-30 0-16.570313-13.429688-30-30-30h20c16.558594 0 30-13.441407 30-30 0-16.570313-13.429688-30-30-30zm0 0"
      fill="#fec9a5" />
    <path d="m136 413.042969h-60l20-240h40zm0 0" fill="#96c8ef" />
    <path d="m96 173.042969-20 240h-66v-240zm0 0" fill="#3a5576" />
    <path
      d="m176 323.042969c-5.519531 0-10 4.480469-10 10s4.480469 10 10 10 10-4.480469 10-10-4.480469-10-10-10zm0 0" />
    <path
      d="m512 203.042969c0-22.058594-17.945312-40-40-40-23.796875 0-96.753906 0-120.246094 0 5.988282-19.878907 14.472656-46.535157 19.164063-61.773438 13.058593-33.589843.8125-64.589843-15.050781-82.4375-12.699219-14.289062-27.871094-20.820312-40.578126-17.46875-5.824218 1.535157-16.148437 6.65625-19.796874 23.691407-7.847657 36.675781-15.042969 76.335937-37.5625 101.28125-22.605469 25.042968-61.347657 36.707031-121.929688 36.707031h-126c-5.523438 0-10 4.476562-10 10v240c0 5.523437 4.476562 10 10 10h126c5.523438 0 10-4.476563 10-10v-25.742188c63.414062 22.679688 115.878906 35.742188 190 35.742188h76c22.097656 0 40-17.898438 40-40 0-7.285157-1.964844-14.113281-5.382812-20h5.382812c22.097656 0 40-17.898438 40-40 0-8.226563-2.496094-15.875-6.769531-22.238281 15.449219-5.402344 26.769531-20.167969 26.769531-37.761719 0-11.933594-5.257812-22.65625-13.574219-29.992188 8.800781-7.769531 13.574219-18.574219 13.574219-30.007812zm-492-20h65.132812l-18.332031 220h-46.800781zm106 220h-39.132812l18.332031-220h20.800781zm20-37.003907v-183.113281c61.019531-1.335937 101.46875-15.152343 126.777344-43.1875 26.050781-28.863281 33.457031-69.308593 42.269531-110.492187.738281-3.453125 2.265625-7.734375 5.34375-8.546875 4.175781-1.097657 12.574219 2.464843 20.53125 11.417969 11.972656 13.472656 21.214844 36.882812 11.242187 62.1875-.09375.238281-.179687.480468-.253906.726562-12.808594 41.625-25.910156 81.203125-25.910156 88.011719 0 27.78125-14.085938 53.167969-37.679688 67.90625-4.683593 2.925781-6.105468 9.097656-3.179687 13.78125 2.929687 4.691406 9.097656 6.105469 13.777344 3.183593 29.324219-18.320312 46.894531-49.824218 47.078125-84.335937.027344-.125.0625-.304687.113281-.546875h25.246094c-3.488281 6.015625-5.355469 12.875-5.355469 20.011719 0 11.933593 5.257812 22.652343 13.570312 29.988281-8.796874 7.773438-13.570312 18.578125-13.570312 30.011719 0 8.222656 2.496094 15.871093 6.769531 22.238281-15.449219 5.402344-26.769531 20.167969-26.769531 37.761719 0 7.28125 1.964844 14.109375 5.382812 20h-5.382812c-10.679688 0-20.726562 4.160156-28.28125 11.71875-7.558594 7.558593-11.71875 17.601562-11.71875 28.28125 0 6.984375 1.800781 13.636719 5.027344 19.445312-61.066406-2.75-108.085938-15.742187-164.988282-36.433593zm286 17.003907c0 11.042969-8.953125 20-20 20h-66c-10.933594 0-20-8.820313-20-20 0-11.046875 8.953125-20 20-20h66c11.027344 0 20 8.972656 20 20zm20-40c-10.75 0-50.652344 0-66 0-11.027344 0-20-8.972657-20-20 0-11.046875 8.953125-20 20-20h66c11.027344 0 20 8.972656 20 20 0 11.042969-8.953125 20-20 20zm40-80c0 11.042969-8.953125 20-20 20-16.996094 0-50.429688 0-66 0-11.027344 0-20-8.972657-20-20 0-11.046875 8.953125-20 20-20h66c11.027344 0 20 8.972656 20 20zm-86-40c-11.027344 0-20-8.972657-20-20 0-11.046875 8.953125-20 20-20h66c11.027344 0 20 8.972656 20 20 0 11.042969-8.953125 20-20 20zm0 0" />
    <path
      d="m176 203.042969c-5.523438 0-10 4.476562-10 10v80c0 5.523437 4.476562 10 10 10s10-4.476563 10-10v-80c0-5.523438-4.476562-10-10-10zm0 0" />
  </symbol>
  <symbol id="trainin-form" viewBox="-96 0 512 512">
    <title>Encouraged</title>
    <path
      d="m130 80v-40c0-16.570312 13.429688-30 30-30 16.558594 0 30 13.441406 30 30v60c0-16.570312 13.429688-30 30-30 16.558594 0 30 13.441406 30 30v136c0-22.738281 18.980469-41.050781 41.960938-39.949219 10.269531.488281 18.039062 9.667969 18.039062 19.949219v136c0 82.839844-67.160156 150-150 150s-150-67.160156-150-150v-212c0-16.570312 13.429688-30 30-30s30 13.429688 30 30v-60c0-16.570312 13.429688-30 30-30s30 13.429688 30 30zm0 0"
      fill="#fec9a5" />
    <path d="m140 402c0 5.519531 4.480469 10 10 10s10-4.480469 10-10-4.480469-10-10-10-10 4.480469-10 10zm0 0" />
    <path
      d="m160 0c-22.054688 0-40 17.945312-40 40v5.382812c-5.886719-3.417968-12.71875-5.382812-20-5.382812-22.054688 0-40 17.945312-40 40v25.382812c-5.886719-3.417968-12.71875-5.382812-20-5.382812-22.054688 0-40 17.945312-40 40v212c0 88.226562 71.777344 160 160 160s160-71.773438 160-160v-136c0-16.050781-12.105469-29.199219-27.5625-29.9375-11.847656-.574219-23.15625 2.941406-32.4375 9.945312v-96.007812c0-22.097656-17.898438-40-40-40-7.28125 0-14.113281 1.964844-20 5.382812v-25.382812c0-22.097656-17.898438-40-40-40zm60 80c11.046875 0 20 8.953125 20 20v212c-34.726562 0-66.453125 17.601562-84.871094 47.082031-2.925781 4.683594-1.5 10.851563 3.183594 13.777344 4.664062 2.914063 10.839844 1.523437 13.777344-3.179687 14.742187-23.59375 40.128906-37.679688 67.910156-37.679688 2.941406 0 5.941406.164062 8.910156.488281 5.914063.65625 11.089844-3.988281 11.089844-9.9375 0-11 0-78.398437 0-86.550781 0-16.992188 14.121094-30.777344 31.484375-29.960938 4.617187.21875 8.515625 4.78125 8.515625 9.960938v136c0 77.195312-62.804688 140-140 140s-140-62.804688-140-140v-212c0-11.027344 8.972656-20 20-20s20 8.972656 20 20v116c0 5.523438 4.476562 10 10 10s10-4.476562 10-10v-176c0-11.027344 8.972656-20 20-20s20 8.972656 20 20v176c0 5.523438 4.476562 10 10 10s10-4.476562 10-10v-216c0-11.027344 8.972656-20 20-20 11.046875 0 20 8.953125 20 20v216c0 5.523438 4.476562 10 10 10s10-4.476562 10-10v-156c0-11.027344 8.972656-20 20-20zm0 0" />
  </symbol>
  <symbol id="auction" viewBox="0 0 512 512">
    <title>On Sale</title>
    <path d="m205.507812 421.617188h298.917969v82.808593h-298.917969zm0 0" fill="#ffcd50" />
    <path
      d="m480.1875 421.617188v46.453124c0 5.578126-4.519531 10.101563-10.097656 10.101563h-264.582032v26.253906h298.917969v-82.808593zm0 0"
      fill="#ffbc27" />
    <path d="m205.507812 338.808594h298.917969v82.808594h-298.917969zm0 0" fill="#ffcd50" />
    <path
      d="m480.1875 338.808594v46.453125c0 5.578125-4.519531 10.101562-10.097656 10.101562h-264.582032v26.253907h298.917969v-82.808594zm0 0"
      fill="#ffbc27" />
    <path d="m205.507812 256h298.917969v82.808594h-298.917969zm0 0" fill="#ffcd50" />
    <path
      d="m480.1875 256v46.453125c0 5.578125-4.519531 10.101563-10.097656 10.101563h-264.582032v26.253906h298.917969v-82.808594zm0 0"
      fill="#ffbc27" />
    <path d="m205.507812 173.191406h298.917969v82.808594h-298.917969zm0 0" fill="#ffcd50" />
    <path
      d="m480.1875 173.191406v46.453125c0 5.578125-4.519531 10.097657-10.097656 10.097657h-264.582032v26.257812h298.917969v-82.808594zm0 0"
      fill="#ffbc27" />
    <path d="m205.507812 90.382812h298.917969v82.808594h-298.917969zm0 0" fill="#ffcd50" />
    <path
      d="m480.1875 90.382812v46.453126c0 5.578124-4.519531 10.101562-10.097656 10.101562h-264.582032v26.253906h298.917969v-82.808594zm0 0"
      fill="#ffbc27" />
    <path d="m205.507812 7.574219h298.917969v82.808593h-298.917969zm0 0" fill="#ffcd50" />
    <path
      d="m480.1875 7.574219v46.453125c0 5.578125-4.519531 10.101562-10.097656 10.101562h-264.582032v26.253906h298.917969v-82.808593zm0 0"
      fill="#ffbc27" />
    <path
      d="m409.5 303.464844c0 110.988281-89.976562 200.960937-200.964844 200.960937-110.988281 0-200.960937-89.972656-200.960937-200.960937 0-110.988282 89.972656-200.964844 200.960937-200.964844 110.988282 0 200.964844 89.976562 200.964844 200.964844zm0 0"
      fill="#ffcd50" />
    <path
      d="m341.320312 152.632812c31.195313 35.410157 50.128907 81.882813 50.128907 132.78125 0 110.992188-89.972657 200.964844-200.960938 200.964844-50.902343 0-97.375-18.933594-132.785156-50.132812 36.828125 41.800781 90.746094 68.179687 150.832031 68.179687 110.988282 0 200.960938-89.972656 200.960938-200.960937.003906-60.085938-26.378906-114.003906-68.175782-150.832032zm0 0"
      fill="#ffbc27" />
    <path
      d="m364.621094 303.464844c0 86.203125-69.878906 156.085937-156.085938 156.085937-86.203125 0-156.085937-69.882812-156.085937-156.085937 0-86.207032 69.882812-156.085938 156.085937-156.085938 86.207032 0 156.085938 69.878906 156.085938 156.085938zm0 0"
      fill="#ffda88" />
    <path
      d="m308.980469 183.996094c22.847656 27.148437 36.621093 62.183594 36.621093 100.445312 0 86.203125-69.882812 156.085938-156.085937 156.085938-38.261719 0-73.296875-13.773438-100.445313-36.621094 28.632813 34.019531 71.523438 55.644531 119.464844 55.644531 86.207032 0 156.089844-69.882812 156.089844-156.085937 0-47.945313-21.625-90.835938-55.644531-119.46875zm0 0"
      fill="#ffcd69" />
    <path
      d="m504.425781 0h-204.558593c-4.183594 0-7.574219 3.390625-7.574219 7.574219 0 4.183593 3.390625 7.574219 7.574219 7.574219h196.984374v67.660156h-283.769531v-67.660156h51.628907c4.183593 0 7.574218-3.390626 7.574218-7.574219 0-4.183594-3.390625-7.574219-7.574218-7.574219h-59.203126c-4.183593 0-7.574218 3.390625-7.574218 7.574219v87.636719c-44.984375 2.296874-88.289063 19.15625-122.941406 48.078124-3.210938 2.679688-3.640626 7.457032-.960938 10.667969 2.679688 3.210938 7.457031 3.640625 10.667969.960938 6.566406-5.480469 13.472656-10.492188 20.65625-15.019531l14.902343 25.808593c-19.824218 12.75-36.730468 29.65625-49.476562 49.476563l-25.808594-14.898438c5.011719-7.941406 10.605469-15.550781 16.78125-22.742187 2.726563-3.171875 2.363282-7.953125-.8125-10.679688-3.171875-2.726562-7.953125-2.359375-10.679687.8125-32.410157 37.746094-50.261719 85.96875-50.261719 135.789063 0 114.984375 93.550781 208.535156 208.535156 208.535156h295.890625c4.183594 0 7.574219-3.390625 7.574219-7.574219v-496.851562c0-4.183594-3.390625-7.574219-7.574219-7.574219zm-303.460937 466.945312v29.746094c-29.679688-1.152344-57.660156-9.015625-82.46875-22.125l14.871094-25.757812c20.410156 10.601562 43.320312 17.023437 67.597656 18.136718zm15.144531 0c24.277344-1.113281 47.1875-7.535156 67.597656-18.136718l14.871094 25.757812c-24.808594 13.109375-52.789063 20.972656-82.46875 22.125zm95.574219.027344-14.867188-25.753906c19.820313-12.746094 36.730469-29.652344 49.476563-49.476562l25.753906 14.871093c-15.390625 24.3125-36.050781 44.96875-60.363281 60.359375zm-95.574219-356.734375c29.679687 1.148438 57.660156 9.015625 82.46875 22.121094l-14.871094 25.757813c-20.410156-10.597657-43.324219-17.023438-67.597656-18.132813zm95.574219 29.714844c24.3125 15.390625 44.972656 36.050781 60.363281 60.363281l-25.753906 14.867188c-12.746094-19.820313-29.652344-36.730469-49.476563-49.476563zm185.167968 108.472656h-87.164062c-6.757812-24.667969-17.941406-47.523437-32.644531-67.660156h119.808593zm0 82.808594h-81.632812c1.214844-9.085937 1.855469-18.355469 1.855469-27.769531 0-13.640625-1.332031-26.972656-3.84375-39.890625h83.621093zm-117.210937-117.8125c13.105469 24.808594 20.972656 52.789063 22.121094 82.46875h-29.746094c-1.109375-24.277344-7.535156-47.1875-18.132813-67.597656zm-7.625 97.613281h29.746094c-1.148438 29.679688-9.015625 57.660156-22.121094 82.46875l-25.757813-14.871094c10.597657-20.410156 17.023438-43.320312 18.132813-67.597656zm40.605469 35.347656h84.230468v67.660157h-111.589843c12.84375-20.453125 22.238281-43.277344 27.359375-67.660157zm84.230468-180.765624h-131.980468c-30.808594-34.898438-73.082032-59.4375-120.875-67.660157h252.855468zm-378.371093-33.28125c25.375-13.339844 53.582031-20.96875 82.484375-22.105469v29.75c-24.277344 1.113281-47.1875 7.535156-67.597656 18.136719zm90.054687 22.613281c81.890625 0 148.515625 66.625 148.515625 148.515625s-66.625 148.511718-148.515625 148.511718-148.511718-66.621093-148.511718-148.511718 66.621093-148.515625 148.511718-148.515625zm-193.226562 156.085937h29.746094c1.113281 24.277344 7.535156 47.1875 18.136718 67.597656l-25.757812 14.871094c-13.109375-24.808594-20.972656-52.789062-22.125-82.46875zm47.882812-82.742187c-10.601562 20.410156-17.023437 43.320312-18.136718 67.597656h-29.75c1.136718-28.945313 8.75-57.125 22.089843-82.488281zm-18.164062 178.320312 25.753906-14.871093c12.746094 19.824218 29.652344 36.730468 49.476562 49.476562l-14.871093 25.753906c-24.3125-15.390625-44.96875-36.046875-60.359375-60.359375zm451.824218 90.238281h-210.3125c35.191407-14.246093 65.640626-37.824218 88.257813-67.660156h122.054687zm0 0" />
    <path
      d="m226.113281 366.207031h-35.15625c-15.210937 0-27.585937-12.375-27.585937-27.585937 0-4.183594-3.390625-7.574219-7.574219-7.574219s-7.574219 3.390625-7.574219 7.574219c0 23.5625 19.171875 42.734375 42.734375 42.734375h10.003907v17.035156c0 4.183594 3.390624 7.574219 7.574218 7.574219s7.574219-3.390625 7.574219-7.574219v-17.035156h10.003906c23.566407 0 42.734375-19.171875 42.734375-42.734375s-19.167968-42.730469-42.734375-42.730469h-35.15625c-15.210937 0-27.585937-12.375-27.585937-27.585937 0-15.210938 12.375-27.585938 27.585937-27.585938h35.15625c15.210938 0 27.585938 12.375 27.585938 27.585938 0 4.183593 3.390625 7.574218 7.574219 7.574218 4.183593 0 7.574218-3.390625 7.574218-7.574218 0-23.5625-19.167968-42.734376-42.734375-42.734376h-10.003906v-17.035156c0-4.183594-3.390625-7.574218-7.574219-7.574218s-7.574218 3.390624-7.574218 7.574218v17.035156h-10.003907c-23.5625 0-42.734375 19.171876-42.734375 42.734376s19.171875 42.730468 42.734375 42.730468h35.15625c15.210938 0 27.585938 12.375 27.585938 27.585938 0 15.210937-12.375 27.585937-27.585938 27.585937zm0 0" />
  </symbol>
</svg>
