<svg xmlns="http://www.w3.org/2000/svg" viewBox="0 0 512 512">
    <title>On Sale</title>
    <path d="m205.507812 421.617188h298.917969v82.808593h-298.917969zm0 0" fill="#ffcd50" />
    <path
      d="m480.1875 421.617188v46.453124c0 5.578126-4.519531 10.101563-10.097656 10.101563h-264.582032v26.253906h298.917969v-82.808593zm0 0"
      fill="#ffbc27" />
    <path d="m205.507812 338.808594h298.917969v82.808594h-298.917969zm0 0" fill="#ffcd50" />
    <path
      d="m480.1875 338.808594v46.453125c0 5.578125-4.519531 10.101562-10.097656 10.101562h-264.582032v26.253907h298.917969v-82.808594zm0 0"
      fill="#ffbc27" />
    <path d="m205.507812 256h298.917969v82.808594h-298.917969zm0 0" fill="#ffcd50" />
    <path
      d="m480.1875 256v46.453125c0 5.578125-4.519531 10.101563-10.097656 10.101563h-264.582032v26.253906h298.917969v-82.808594zm0 0"
      fill="#ffbc27" />
    <path d="m205.507812 173.191406h298.917969v82.808594h-298.917969zm0 0" fill="#ffcd50" />
    <path
      d="m480.1875 173.191406v46.453125c0 5.578125-4.519531 10.097657-10.097656 10.097657h-264.582032v26.257812h298.917969v-82.808594zm0 0"
      fill="#ffbc27" />
    <path d="m205.507812 90.382812h298.917969v82.808594h-298.917969zm0 0" fill="#ffcd50" />
    <path
      d="m480.1875 90.382812v46.453126c0 5.578124-4.519531 10.101562-10.097656 10.101562h-264.582032v26.253906h298.917969v-82.808594zm0 0"
      fill="#ffbc27" />
    <path d="m205.507812 7.574219h298.917969v82.808593h-298.917969zm0 0" fill="#ffcd50" />
    <path
      d="m480.1875 7.574219v46.453125c0 5.578125-4.519531 10.101562-10.097656 10.101562h-264.582032v26.253906h298.917969v-82.808593zm0 0"
      fill="#ffbc27" />
    <path
      d="m409.5 303.464844c0 110.988281-89.976562 200.960937-200.964844 200.960937-110.988281 0-200.960937-89.972656-200.960937-200.960937 0-110.988282 89.972656-200.964844 200.960937-200.964844 110.988282 0 200.964844 89.976562 200.964844 200.964844zm0 0"
      fill="#ffcd50" />
    <path
      d="m341.320312 152.632812c31.195313 35.410157 50.128907 81.882813 50.128907 132.78125 0 110.992188-89.972657 200.964844-200.960938 200.964844-50.902343 0-97.375-18.933594-132.785156-50.132812 36.828125 41.800781 90.746094 68.179687 150.832031 68.179687 110.988282 0 200.960938-89.972656 200.960938-200.960937.003906-60.085938-26.378906-114.003906-68.175782-150.832032zm0 0"
      fill="#ffbc27" />
    <path
      d="m364.621094 303.464844c0 86.203125-69.878906 156.085937-156.085938 156.085937-86.203125 0-156.085937-69.882812-156.085937-156.085937 0-86.207032 69.882812-156.085938 156.085937-156.085938 86.207032 0 156.085938 69.878906 156.085938 156.085938zm0 0"
      fill="#ffda88" />
    <path
      d="m308.980469 183.996094c22.847656 27.148437 36.621093 62.183594 36.621093 100.445312 0 86.203125-69.882812 156.085938-156.085937 156.085938-38.261719 0-73.296875-13.773438-100.445313-36.621094 28.632813 34.019531 71.523438 55.644531 119.464844 55.644531 86.207032 0 156.089844-69.882812 156.089844-156.085937 0-47.945313-21.625-90.835938-55.644531-119.46875zm0 0"
      fill="#ffcd69" />
    <path
      d="m504.425781 0h-204.558593c-4.183594 0-7.574219 3.390625-7.574219 7.574219 0 4.183593 3.390625 7.574219 7.574219 7.574219h196.984374v67.660156h-283.769531v-67.660156h51.628907c4.183593 0 7.574218-3.390626 7.574218-7.574219 0-4.183594-3.390625-7.574219-7.574218-7.574219h-59.203126c-4.183593 0-7.574218 3.390625-7.574218 7.574219v87.636719c-44.984375 2.296874-88.289063 19.15625-122.941406 48.078124-3.210938 2.679688-3.640626 7.457032-.960938 10.667969 2.679688 3.210938 7.457031 3.640625 10.667969.960938 6.566406-5.480469 13.472656-10.492188 20.65625-15.019531l14.902343 25.808593c-19.824218 12.75-36.730468 29.65625-49.476562 49.476563l-25.808594-14.898438c5.011719-7.941406 10.605469-15.550781 16.78125-22.742187 2.726563-3.171875 2.363282-7.953125-.8125-10.679688-3.171875-2.726562-7.953125-2.359375-10.679687.8125-32.410157 37.746094-50.261719 85.96875-50.261719 135.789063 0 114.984375 93.550781 208.535156 208.535156 208.535156h295.890625c4.183594 0 7.574219-3.390625 7.574219-7.574219v-496.851562c0-4.183594-3.390625-7.574219-7.574219-7.574219zm-303.460937 466.945312v29.746094c-29.679688-1.152344-57.660156-9.015625-82.46875-22.125l14.871094-25.757812c20.410156 10.601562 43.320312 17.023437 67.597656 18.136718zm15.144531 0c24.277344-1.113281 47.1875-7.535156 67.597656-18.136718l14.871094 25.757812c-24.808594 13.109375-52.789063 20.972656-82.46875 22.125zm95.574219.027344-14.867188-25.753906c19.820313-12.746094 36.730469-29.652344 49.476563-49.476562l25.753906 14.871093c-15.390625 24.3125-36.050781 44.96875-60.363281 60.359375zm-95.574219-356.734375c29.679687 1.148438 57.660156 9.015625 82.46875 22.121094l-14.871094 25.757813c-20.410156-10.597657-43.324219-17.023438-67.597656-18.132813zm95.574219 29.714844c24.3125 15.390625 44.972656 36.050781 60.363281 60.363281l-25.753906 14.867188c-12.746094-19.820313-29.652344-36.730469-49.476563-49.476563zm185.167968 108.472656h-87.164062c-6.757812-24.667969-17.941406-47.523437-32.644531-67.660156h119.808593zm0 82.808594h-81.632812c1.214844-9.085937 1.855469-18.355469 1.855469-27.769531 0-13.640625-1.332031-26.972656-3.84375-39.890625h83.621093zm-117.210937-117.8125c13.105469 24.808594 20.972656 52.789063 22.121094 82.46875h-29.746094c-1.109375-24.277344-7.535156-47.1875-18.132813-67.597656zm-7.625 97.613281h29.746094c-1.148438 29.679688-9.015625 57.660156-22.121094 82.46875l-25.757813-14.871094c10.597657-20.410156 17.023438-43.320312 18.132813-67.597656zm40.605469 35.347656h84.230468v67.660157h-111.589843c12.84375-20.453125 22.238281-43.277344 27.359375-67.660157zm84.230468-180.765624h-131.980468c-30.808594-34.898438-73.082032-59.4375-120.875-67.660157h252.855468zm-378.371093-33.28125c25.375-13.339844 53.582031-20.96875 82.484375-22.105469v29.75c-24.277344 1.113281-47.1875 7.535156-67.597656 18.136719zm90.054687 22.613281c81.890625 0 148.515625 66.625 148.515625 148.515625s-66.625 148.511718-148.515625 148.511718-148.511718-66.621093-148.511718-148.511718 66.621093-148.515625 148.511718-148.515625zm-193.226562 156.085937h29.746094c1.113281 24.277344 7.535156 47.1875 18.136718 67.597656l-25.757812 14.871094c-13.109375-24.808594-20.972656-52.789062-22.125-82.46875zm47.882812-82.742187c-10.601562 20.410156-17.023437 43.320312-18.136718 67.597656h-29.75c1.136718-28.945313 8.75-57.125 22.089843-82.488281zm-18.164062 178.320312 25.753906-14.871093c12.746094 19.824218 29.652344 36.730468 49.476562 49.476562l-14.871093 25.753906c-24.3125-15.390625-44.96875-36.046875-60.359375-60.359375zm451.824218 90.238281h-210.3125c35.191407-14.246093 65.640626-37.824218 88.257813-67.660156h122.054687zm0 0" />
    <path
      d="m226.113281 366.207031h-35.15625c-15.210937 0-27.585937-12.375-27.585937-27.585937 0-4.183594-3.390625-7.574219-7.574219-7.574219s-7.574219 3.390625-7.574219 7.574219c0 23.5625 19.171875 42.734375 42.734375 42.734375h10.003907v17.035156c0 4.183594 3.390624 7.574219 7.574218 7.574219s7.574219-3.390625 7.574219-7.574219v-17.035156h10.003906c23.566407 0 42.734375-19.171875 42.734375-42.734375s-19.167968-42.730469-42.734375-42.730469h-35.15625c-15.210937 0-27.585937-12.375-27.585937-27.585937 0-15.210938 12.375-27.585938 27.585937-27.585938h35.15625c15.210938 0 27.585938 12.375 27.585938 27.585938 0 4.183593 3.390625 7.574218 7.574219 7.574218 4.183593 0 7.574218-3.390625 7.574218-7.574218 0-23.5625-19.167968-42.734376-42.734375-42.734376h-10.003906v-17.035156c0-4.183594-3.390625-7.574218-7.574219-7.574218s-7.574218 3.390624-7.574218 7.574218v17.035156h-10.003907c-23.5625 0-42.734375 19.171876-42.734375 42.734376s19.171875 42.730468 42.734375 42.730468h35.15625c15.210938 0 27.585938 12.375 27.585938 27.585938 0 15.210937-12.375 27.585937-27.585938 27.585937zm0 0" />
</svg>
