<svg xmlns="http://www.w3.org/2000/svg" viewBox="0 0 512 512">
  <g transform="matrix(1.1,0,0,1.1002864,-25.59995,-25.72342)" id="g3713">
    <path id="path3705"
      d="m 435.648,295.275 -33.621,-26.347 c 0.405,-4.245 0.661,-8.576 0.661,-12.907 0,-4.395 -0.256,-8.768 -0.683,-13.163 l 33.941,-26.624 c 7.509,-6.357 9.323,-16.981 4.416,-25.152 L 404.01,128.255 c -4.949,-8.235 -15.04,-11.776 -24.277,-8.299 l -39.531,15.893 c -7.104,-5.077 -14.507,-9.387 -22.4,-13.099 L 311.807,80.19 C 310.059,70.976 301.675,64 292.267,64 h -72.533 c -9.493,0 -17.899,7.125 -19.627,16.939 l -5.931,42.112 c -7.957,3.776 -15.445,8.149 -22.379,13.056 l -39.765,-16 c -8.981,-3.349 -19.072,0.149 -24.107,8.533 l -36.181,62.549 c -4.992,8.32 -3.179,18.944 4.629,25.536 l 33.621,26.368 c -0.405,4.245 -0.661,8.576 -0.661,12.907 0,4.395 0.256,8.768 0.661,13.141 l -33.941,26.624 c -7.509,6.357 -9.323,16.981 -4.416,25.152 l 36.352,62.827 c 4.949,8.235 15.061,11.776 24.277,8.299 l 39.531,-15.893 c 7.104,5.077 14.507,9.387 22.4,13.099 l 5.995,42.56 c 1.749,9.216 10.133,16.192 19.541,16.192 h 72.533 c 9.493,0 17.899,-7.125 19.669,-16.939 l 5.909,-42.112 c 7.957,-3.776 15.445,-8.149 22.379,-13.056 l 39.765,16 c 9.003,3.392 19.093,-0.149 24.107,-8.533 l 36.181,-62.549 c 4.993,-8.3 3.18,-18.945 -4.628,-25.537 z m -49.323,76.16 -43.712,-17.579 c -3.52,-1.451 -7.531,-0.875 -10.539,1.472 -8.341,6.507 -17.835,12.053 -28.203,16.491 -3.413,1.472 -5.845,4.629 -6.357,8.32 l -5.248,46.528 h -71.275 l -6.485,-46.272 c -0.533,-3.712 -2.965,-6.891 -6.443,-8.341 -10.219,-4.267 -19.413,-9.664 -28.139,-16.448 -3.008,-2.325 -6.997,-2.88 -10.539,-1.472 l -43.712,17.6 -34.923,-60.352 37.12,-29.099 c 2.965,-2.325 4.48,-6.037 4.011,-9.771 -0.725,-5.504 -1.216,-11.008 -1.216,-16.512 0,-5.483 0.491,-10.944 1.195,-16.192 0.491,-3.733 -1.003,-7.488 -3.989,-9.813 l -37.12,-29.099 34.923,-60.352 43.712,17.6 c 3.499,1.408 7.509,0.832 10.539,-1.493 8.341,-6.485 17.835,-12.032 28.203,-16.491 3.435,-1.472 5.845,-4.608 6.357,-8.299 l 5.248,-46.528 h 71.275 l 6.485,46.272 c 0.533,3.712 2.965,6.891 6.443,8.341 10.219,4.267 19.413,9.664 28.139,16.448 3.008,2.347 7.04,2.901 10.539,1.472 l 43.712,-17.621 34.923,60.352 -37.12,29.099 c -2.965,2.325 -4.48,6.037 -4.011,9.771 0.725,5.504 1.216,11.008 1.216,16.512 0,5.483 -0.491,10.944 -1.195,16.192 -0.491,3.733 1.003,7.488 3.989,9.813 l 37.12,29.099 z" />
    <path id="path3707"
      d="m 256,192 c -35.285,0 -64,28.715 -64,64 0,35.285 28.715,64 64,64 35.285,0 64,-28.715 64,-64 0,-35.285 -28.715,-64 -64,-64 z m 0,106.667 c -23.531,0 -42.667,-19.136 -42.667,-42.667 0,-23.531 19.136,-42.667 42.667,-42.667 23.531,0 42.667,19.136 42.667,42.667 0,23.531 -19.136,42.667 -42.667,42.667 z" />
  </g>
</svg>
