<svg xmlns="http://www.w3.org/2000/svg" viewBox="-19 0 512 512.00101">
  <path
    d="m130.605469 271.492188c1.585937 3.925781 5.363281 6.304687 9.351562 6.304687 1.257813 0 2.539063-.234375 3.777344-.734375 5.160156-2.085938 7.65625-7.964844 5.570313-13.125l-.195313-.480469c-2.085937-5.164062-7.960937-7.660156-13.125-5.570312-5.164063 2.085937-7.65625 7.960937-5.570313 13.125zm0 0" />
  <path
    d="m412.226562 428.84375c-2.085937-5.160156-7.964843-7.65625-13.128906-5.570312-5.160156 2.085937-7.65625 7.964843-5.570312 13.125l.195312.480468c1.585938 3.925782 5.363282 6.308594 9.351563 6.308594 1.257812 0 2.535156-.238281 3.773437-.738281 5.164063-2.085938 7.65625-7.960938 5.570313-13.125zm0 0" />
  <path
    d="m463.277344 491.835938h-50.222656v-19.15625c0-5.570313-4.511719-10.082032-10.082032-10.082032-5.566406 0-10.082031 4.511719-10.082031 10.082032v19.15625h-28.132813v-46.171876c0-5.566406-4.515624-10.082031-10.082031-10.082031-5.570312 0-10.082031 4.515625-10.082031 10.082031v46.171876h-27.8125v-117.945313h76.113281v19.136719c0 5.570312 4.511719 10.082031 10.082031 10.082031 5.566407 0 10.082032-4.511719 10.082032-10.082031v-14.589844c3.09375 1.085938 6.414062 1.671875 9.875 1.671875 16.511718 0 29.949218-13.433594 29.949218-29.949219v-63.519531c0-17.480469-6.5-34.203125-18.296874-47.085937-6.800782-7.425782-15.023438-13.214844-24.089844-17.082032 13.050781-13.761718 21.070312-32.34375 21.070312-52.765625 0-42.3125-34.425781-76.734375-76.738281-76.734375-8.574219 0-17.117187 1.449219-25.179687 4.238282-13.359376-28.902344-42.625-49.003907-76.5-49.003907-10.082032 0-20.105469 1.820313-29.492188 5.320313-14.671875-31.578125-46.691406-53.527344-83.742188-53.527344-50.878906 0-92.273437 41.394531-92.273437 92.273438 0 25.804687 10.644531 49.167968 27.777344 65.929687-12.167969 4.597656-23.1875 12.019531-32.148438 21.816406-14.132812 15.449219-21.914062 35.492188-21.914062 56.445313v78.324218c0 19.066407 15.511719 34.578126 34.578125 34.578126 5.140625 0 10.023437-1.128907 14.414062-3.148438v145.617188h-60.265625c-5.566406 0-10.082031 4.515624-10.082031 10.082031 0 5.570312 4.515625 10.082031 10.082031 10.082031h453.195313c5.566406 0 10.082031-4.511719 10.082031-10.082031 0-5.566407-4.515625-10.082031-10.082031-10.082031zm-204.800782-177.046876v-78.324218c0-6.761719-.8125-13.425782-2.382812-19.875 13.179688-.453125 25.597656-3.953125 36.574219-9.8125 27.6875 3.914062 48.238281 27.398437 48.238281 55.703125v70.648437c0 6.625-5.386719 12.015625-12.011719 12.015625s-12.015625-5.390625-12.015625-12.015625c0-.484375-.035156-.964844-.101562-1.429687v-44.972657c0-5.570312-4.515625-10.082031-10.082032-10.082031-5.570312 0-10.082031 4.511719-10.082031 10.082031v51.496094h-47.316406c5.695313-6.164062 9.179687-14.398437 9.179687-23.433594zm174.238282-28.148437v63.519531c0 5.398438-4.386719 9.785156-9.785156 9.785156-5.394532 0-9.78125-4.386718-9.78125-9.785156 0-.460937-.03125-.914062-.09375-1.359375v-40.359375c0-5.570312-4.511719-10.085937-10.082032-10.085937-5.566406 0-10.082031 4.515625-10.082031 10.085937v45.28125h-39.292969c4.664063-5.582031 7.476563-12.765625 7.476563-20.59375v-70.648437c0-5.484375-.585938-10.898438-1.722657-16.164063 11.207032-.65625 21.777344-3.726562 31.191407-8.699218 24.230469 3.585937 42.171875 24.199218 42.171875 49.023437zm-77.890625-173.503906c31.195312 0 56.574219 25.378906 56.574219 56.570312 0 31.195313-25.378907 56.574219-56.574219 56.574219-.960938 0-1.925781-.027344-2.890625-.074219-2.964844-5.492187-6.617188-10.648437-10.914063-15.335937-7.832031-8.554688-17.386719-15.125-27.925781-19.351563 15-15.214843 24.269531-36.09375 24.269531-59.097656 0-5.480469-.523437-10.839844-1.527343-16.03125 6.046874-2.160156 12.410156-3.253906 18.988281-3.253906zm-101.679688-44.765625c35.320313 0 64.054688 28.734375 64.054688 64.054687 0 35.316407-28.734375 64.050781-64.054688 64.050781-1.644531 0-3.292969-.0625-4.933593-.1875-3.195313-5.832031-7.105469-11.308593-11.679688-16.300781-8.960938-9.78125-19.96875-17.191406-32.121094-21.785156 17.132813-16.761719 27.777344-40.125 27.777344-65.925781 0-6.734375-.722656-13.300782-2.101562-19.625 7.316406-2.816406 15.160156-4.28125 23.058593-4.28125zm-185.339843 23.902344c0-39.761719 32.347656-72.109376 72.109374-72.109376 39.761719 0 72.109376 32.347657 72.109376 72.109376 0 39.761718-32.347657 72.109374-72.109376 72.109374-39.761718 0-72.109374-32.347656-72.109374-72.109374zm-11.871094 236.929687c-7.949219 0-14.414063-6.464844-14.414063-14.414063v-78.324218c0-32.042969 23.367188-58.625 54.777344-62.890625 10.1875 5.488281 21.519531 9.117187 33.535156 10.425781v43.246094c0 5.570312 4.515625 10.085937 10.082031 10.085937 5.570313 0 10.082032-4.515625 10.082032-10.085937v-43.246094c12.015625-1.308594 23.347656-4.9375 33.535156-10.425781 31.417969 4.261719 54.78125 30.835937 54.78125 62.890625v78.324218c0 7.949219-6.46875 14.414063-14.417969 14.414063-7.945312 0-14.414062-6.464844-14.414062-14.414063 0-.511718-.035157-1.019531-.109375-1.511718v-40.363282c0-5.566406-4.515625-10.082031-10.085938-10.082031-5.566406 0-10.082031 4.515625-10.082031 10.082031v48.617188h-98.691406v-58.1875c0-5.570312-4.511719-10.085938-10.082031-10.085938-5.566407 0-10.082032 4.515626-10.082032 10.085938v51.445312c0 7.949219-6.464844 14.414063-14.414062 14.414063zm94.007812 162.632813v-102.421876c0-5.570312-4.515625-10.082031-10.082031-10.082031-5.570313 0-10.082031 4.511719-10.082031 10.082031v102.421876h-39.265625v-150.140626h98.691406v150.140626zm59.632813-133.449219h86.929687v133.449219h-38.027344v-80.648438c0-5.566406-4.515624-10.082031-10.085937-10.082031-5.566406 0-10.082031 4.515625-10.082031 10.082031v80.648438h-28.734375zm0 0" />
</svg>
